<svg xmlns="http://www.w3.org/2000/svg" viewBox="0 0 97.9 123.95"><g id="Layer_2" data-name="Layer 2"><g id="Layer_9" data-name="Layer 9"><path d="M90.2,16.19C79.08,11.32,67.93,6.51,56.85,1.54a15.29,15.29,0,0,0-13.92.28c-9.19,4.67-18.44,9.24-27.56,14.06-5.08,2.7-8.44,6.7-9,12.86A91.84,91.84,0,0,1,2.9,46.87c-4.56,15-3.16,29.94.22,44.9a40.25,40.25,0,0,1,.68,9.58,9.23,9.23,0,0,1,.05,1.05c.1.7.16,1.4.2,2.1,0,.1,0,.2,0,.3,0,.5,0,1,.07,1.52,0,.24,0,.46.05.67s.15.66.23,1a2.45,2.45,0,0,0,.78,1,2.27,2.27,0,0,1,.67.93,73.27,73.27,0,0,0,37,14l.84-.25.53-.19c.44-.22.88-.45,1.3-.71l.23-.16a9.21,9.21,0,0,0,.75-.78c-.4.3.31-1.19.09-.1h0a15.07,15.07,0,0,0,.43-2.75c-.07-.32-.11-.65-.16-1,0-.1-.07-.21-.12-.31a3.42,3.42,0,0,1-.23-.73c-1.1-2.57-1.56-6.51-1.91-12.34-.33-5.48-.49-11-.85-16.46-.28-4.34,1.32-7.54,4.63-10.44,10.27-9,20.5-18.09,31.6-26.06,4.79-3.43,5.8-6.89,2.65-12.09,6,.09,9.87-2.29,11.27-8a6.89,6.89,0,0,1,.81-1.82C99.7,21.5,99.25,20.15,90.2,16.19Zm4,8.75c-1,1.53-2.15,1.69-3.78.67C81.5,20,71.65,16.32,62.2,11.82a18.22,18.22,0,0,0-15.84-.19C40.87,14,35.18,15.87,29.58,18c-1.32.49-3.44.55-2.76,2.69s2.6.86,3.79.45C36.11,19.24,41.75,17.57,47,15c5-2.44,9.57-2.09,14.31,0,8.8,4,17.57,8,26.38,11.9,2,.89,3.68,1.83,2.8,4.39-.82,2.39-1.75,5-5,4.7a59.63,59.63,0,0,1-7.33-1.32C67.25,32.45,56.39,29.65,45.1,31c-4.18.51-8.61,1.2-9,6.75-.28,4.26,3.63,8.68,8.51,9.83,6.45,1.52,12.11-1.14,17.73-3.66,2.72-1.23,5.27-2.83,8-4.13a7.26,7.26,0,0,1,7.59.34c3.9,2.59,4.09,5.73.44,8.56Q62.17,61.29,46.65,74.66c-4.2,3.64-6.26,7.76-6.16,13.45A210.72,210.72,0,0,0,42.62,116c.54,3.51-.33,4.83-4.09,4.25A67.51,67.51,0,0,1,9.64,108.61c-1-.67-2-1.31-2-2.68C7.93,94,4.22,82.57,3.44,70.78c-.07-1,0-2,0-3C2.79,56.42,8,46,8.7,34.88,9.31,24.56,14.5,19,23.56,15.43c6.62-2.64,12.88-6.22,19.15-9.64,4.74-2.58,9.19-3,14.22-.59C67.55,10.33,78.21,15.41,89.3,19.51a21.29,21.29,0,0,1,3.55,1.83C94.19,22.16,95.38,23.15,94.19,24.94ZM68.9,36.24c-5.6,3.84-10.78,6.67-16.67,8-4,.87-8,.92-11.09-2.4-2.88-3.07-1.9-6.83,2.1-7.42C51.67,33.15,60,34.37,68.9,36.24Z"/></g></g></svg>