<svg xmlns="http://www.w3.org/2000/svg" viewBox="0 0 107.57 92.62"><g id="Layer_2" data-name="Layer 2"><g id="Layer_7" data-name="Layer 7"><path d="M102.61,51.51c-9.91-13-22.21-23.34-37.55-29.72-7.52-3.13-14.86-6.68-22.33-9.94a32.92,32.92,0,0,1-10.3-7.72,6.37,6.37,0,0,1-1.31-1.76c-.21-.23-.41-.48-.6-.73a5,5,0,0,1-.68-.38A5.28,5.28,0,0,1,28.6.59C27.81.4,27,.22,26.24,0c-.5.16-1,.33-1.49.54-.12,0-.24.08-.37.12A73.81,73.81,0,0,0,0,30.16c.06.45.12.91.06.63a6.91,6.91,0,0,0,.21.9s.33.57.42.71c.2.31.43.6.64.9s.28.41.41.61h0a74.74,74.74,0,0,1,17.69,18,7.9,7.9,0,0,1,1,5.31c-.55,5.49,1.84,9.63,5.59,13.29C32.48,76.79,39.28,82.68,45,89.72c2.65,3.29,7.38,3.5,11.35,1,3.76-2.31,4.39-5.57,2.93-9.49-.33-.89-1.33-1.6-.62-3,6.93,4.86,13.77,9.82,21.63,13.06,5.83,2.4,9.49,1.57,12.74-3.74,1.32-2.16,3-2.28,4.92-2.59,5.91-1,8.31-4,8-10-.07-1.3-.5-2.51.14-3.88C109.39,63.86,106.84,57.06,102.61,51.51Zm1,17.28c-1.25,2.61-2.76,1.57-4.38.71A132.07,132.07,0,0,1,76.31,54.41c-1.54-1.27-3.06-2.57-4.65-3.77-1.21-.9-2.48-3.09-4.08-1.09-1.28,1.6.69,2.6,1.77,3.51A142.18,142.18,0,0,0,96.8,72c.59.31,1.21.57,1.77.93,1.83,1.18,4.66,1.59,3.78,4.91-.91,3.49-3.73,3.81-6.58,4.11-2,.36-3-1-4.23-2.16C83.46,71.8,73.65,66,64.74,59c-.86-.68-1.95-1.74-3-.51-1.31,1.48,0,2.45,1.06,3.23,5.48,4.07,11,8,16.48,12.15,2.92,2.2,5.77,4.52,8.5,6.94,1.69,1.49,3.89,3,2,5.82-1.79,2.65-4.37,3-7.06,2a58.52,58.52,0,0,1-12.75-6.75c-5.32-3.72-10.46-7.68-15.74-11.46-1-.69-2-2.21-3.42-.92s-.26,2.44.36,3.62c1.55,2.94,3.08,5.89,4.62,8.84,1.29,2.47.87,4.53-1.57,6s-4.74,2-6.71-.5c-5.79-7.38-13-13.39-19.61-19.9-2.32-2.28-4.18-5-3.9-8.33.53-6.59-2.39-11.55-6.84-15.9C13.55,39.86,10.05,36.29,6.28,33c-1.81-1.56-2.36-2.74-1.22-5C9.72,18.75,16.45,11.3,24.47,4.88c2-1.62,3.3-1.42,4.86.61,4,5.15,9.26,8.35,15.24,10.85C53.15,19.92,61.49,24.09,69.94,28c12.76,5.89,22,15.92,30.89,26.33,1,1.13,2.29,2.76,1.39,4-1.35,1.87-3-.09-4.34-.68-8-3.58-14.71-9-20.69-15.37-1.14-1.21-2.31-4.46-4.43-2.29-1.84,1.89,1.07,3.39,2.27,4.75a63.73,63.73,0,0,0,25.56,17.75,11.19,11.19,0,0,1,1.85.75C104.79,64.67,104.66,66.5,103.56,68.79Z"/></g></g></svg>