<?xml version="1.0" encoding="utf-8"?>
<!-- Generator: Adobe Illustrator 24.1.0, SVG Export Plug-In . SVG Version: 6.00 Build 0)  -->
<svg version="1.1" id="Layer_1" xmlns="http://www.w3.org/2000/svg" xmlns:xlink="http://www.w3.org/1999/xlink" x="0px" y="0px"
	 viewBox="0 0 323.4 176.8" style="enable-background:new 0 0 323.4 176.8;" xml:space="preserve">
<style type="text/css">
	.st0{fill:#020203;}
	.st1{fill:#020303;}
</style>
<path class="st0" d="M54,56.8c-22.8,0-38.4,15-41.4,38.4L9,93.3l-9-4.1v27.6c0,12,5.9,19.9,13.1,22.9c6,24,24.7,36.5,40.9,37.1
	c16.2-0.6,34.9-13.1,40.9-37.1c7.2-3,13.1-10.9,13.1-22.9V89.2l-8.4,4.1L96,95.2C92.4,71.8,76.8,56.8,54,56.8z M30.6,80.8H78
	c4.2,6.6,6.6,15.6,6.6,24v6h6c1.2,0,1.8,0,6-2.4c-0.6,3-0.6,6-0.6,8.4c0,8.4-3.5,11.4-7.1,12l-4.3,0.6l-0.6,4.3
	c-4.2,19.8-18,30.5-30,31.1c-12-0.6-26.4-11.3-30-31.1l-0.6-4.3l-4.3-0.6c-3.6-0.6-7.1-3.6-7.1-12v-8.4c4.2,2.4,4.8,2.4,6,2.4h6v-6
	C24,96.4,25.8,87.4,30.6,80.8z M30,92.8c0,0,3,12,18,12v-6C36.6,98.8,30,92.8,30,92.8z M78,92.8c0,0-6.6,6-18,6v6
	C75,104.8,78,92.8,78,92.8z M39,110.8c-5,0-9,4-9,9s4,9,9,9s9-4,9-9S44,110.8,39,110.8z M69,110.8c-5,0-9,4-9,9s4,9,9,9s9-4,9-9
	S74,110.8,69,110.8z"/>
<g>
	<path class="st1" d="M323.2,20.8c0-11.2-6.7-18.7-18-20.2c-3-0.4-6.2-0.5-9.2-0.5c-48.9,0-97.8,0-146.8,0c-3.3,0-6.7,0.1-10,0.7
		c-11.1,1.9-16.4,7.9-16.1,18c0.7,21.9,0.9,43.9,0,65.8c-0.6,14.7,8,19.4,19.7,20.4c7.2,0.6,14.4,0.5,21.6,0.2
		c4.1-0.2,5.4,1.2,5.2,5.2c-0.1,2.7-0.2,5.4-0.2,8.3c0.5,0.1,1,0.2,1.5,0.3c0,0,0,0,0,0c0.1-0.1,0.1-0.3,0.2-0.4
		c2.2-3.3,0.9-9.5,0.3-13.3c-0.8-4.7-2.8-5.7-7.1-6.3h-24.9c-2.4,0-4.2-1-5.3-2.4c-3.1-2.6-4.3-6.9-3.6-10.8V40.9
		c-1.1-5.2-2.4-10.4-2.3-15.8c0.1-5.9,2.2-11.7,6.1-15.3c0.1-0.1,0.2-0.2,0.3-0.3c2.8-2.5,6.5-3.9,11-3.5h79.5
		c0.9-0.1,1.8-0.1,2.7-0.2c15.4-0.9,30.8-1.3,46.2-1c13,0.2,26-1.1,38.9,1.6c4.4,0.9,8.4,6.1,8,10.5c-0.5,5.6-1,11.2-1.7,16.8v53
		c0,2.9-0.9,5.1-2.3,6.8c-1.6,3-4.7,5.2-9.1,5.2c-5,2-11.5,1.6-16.6,1.8c-13,0.5-26.1,0.1-39.1,0.3c-13,0.2-25.1,2-37.7,5.1
		c-1.6,0.4-3.2,0.7-4.8,1.1c-1.8,0.7-3.7,1.3-5.6,2c-2.6,1-5.1,2.4-7.7,3.2c-1.9,1.1-3.9,2.1-6,3c-4.6,2.1-9.1,4.7-12.8,8.2
		c-0.1,0.1-0.2,0.2-0.3,0.2c0.6,0.3,1.2,0.6,1.7,0.9c8.7-3.5,17-6.8,25.1-10.6c13.1-6.1,26.4-9.6,41.2-8.9c18.7,0.9,37.6,0.2,56.4,0
		c12.2-0.1,22.1-7.4,21.8-22.2C322.9,62.1,323.3,41.5,323.2,20.8z"/>
</g>
<g>
	<path d="M155.8,43c-1.1,0-2-0.3-2.7-0.9c-0.7-0.6-1.2-1.4-1.6-2.4c-0.3-1-0.4-2.2-0.3-3.5c0.1-1.4,0.5-2.5,1.1-3.4
		c0.6-0.9,1.3-1.6,2.1-2.1c0.8-0.5,1.7-0.7,2.6-0.7c0.8,0,1.5,0.2,2,0.5c0.6,0.4,1,0.8,1.4,1.4c0.2,0.2,0.2,0.5,0.1,0.9
		c-0.1,0.4-0.3,0.6-0.6,0.8c-0.3,0.2-0.7,0.2-1,0.1c-0.3-0.1-0.6-0.3-0.8-0.5c-0.1-0.2-0.3-0.3-0.5-0.4c-0.2-0.1-0.5-0.2-0.8-0.2
		c-0.6,0-1.2,0.3-1.7,0.9c-0.5,0.6-0.8,1.6-0.9,2.9c-0.1,0.8-0.1,1.4,0,2c0.1,0.6,0.3,1,0.6,1.4c0.3,0.3,0.6,0.5,1,0.5
		c0.3,0,0.6-0.1,0.9-0.4c0.3-0.2,0.6-0.6,0.9-1.2c0.2-0.3,0.4-0.5,0.8-0.6c0.3-0.1,0.7,0,1.1,0.2c0.3,0.2,0.6,0.4,0.6,0.8
		c0.1,0.4,0.1,0.7-0.1,1c-0.4,0.8-1,1.4-1.7,2C157.7,42.7,156.9,43,155.8,43z"/>
	<path d="M164.7,42.8c-0.5,0-0.9-0.2-1.1-0.5c-0.2-0.3-0.3-0.7-0.3-1.1l2.2-20.2c0-0.5,0.2-0.8,0.5-1c0.3-0.2,0.7-0.3,1.2-0.3
		s0.8,0.1,1.1,0.4c0.2,0.3,0.3,0.6,0.3,1.1l-2.3,20.3c0,0.3-0.1,0.7-0.4,0.9C165.8,42.7,165.3,42.8,164.7,42.8z M171.7,42.8
		c-0.6,0-1-0.2-1.2-0.5c-0.2-0.3-0.3-0.7-0.2-1.2l0.8-6.7c0.1-0.5,0-0.9-0.1-1.2c-0.1-0.3-0.3-0.4-0.6-0.4c-0.4,0-0.9,0.3-1.6,1
		c-0.7,0.7-1.5,1.9-2.4,3.6l0.4-4.2c0.7-1,1.4-1.8,2.1-2.4c0.7-0.5,1.5-0.8,2.2-0.8c1,0,1.8,0.4,2.4,1.2c0.5,0.8,0.7,1.9,0.5,3.3
		l-0.8,6.7c0,0.3-0.2,0.7-0.4,1C172.7,42.7,172.3,42.8,171.7,42.8z"/>
	<path d="M181.3,42.9c-1.1,0-1.9-0.3-2.6-0.8c-0.7-0.5-1.2-1.3-1.5-2.3s-0.4-2.1-0.3-3.3c0.2-2,0.8-3.6,1.9-4.7
		c1-1.1,2.3-1.7,3.8-1.7c1.1,0,2,0.3,2.7,0.8c0.7,0.6,1.2,1.3,1.5,2.3s0.4,2.1,0.3,3.3c-0.1,1.2-0.5,2.3-0.9,3.3
		c-0.5,1-1.1,1.7-2,2.3C183.3,42.6,182.3,42.9,181.3,42.9z M181.4,40.1c0.4,0,0.8-0.2,1.2-0.5c0.4-0.3,0.6-0.8,0.9-1.3
		c0.2-0.6,0.4-1.3,0.5-2.1c0.1-0.4,0.1-0.9,0.1-1.3c0-0.4-0.1-0.8-0.2-1.1c-0.1-0.3-0.3-0.6-0.5-0.8c-0.2-0.2-0.5-0.3-0.8-0.3
		c-0.6,0-1.2,0.3-1.7,1s-0.8,1.6-0.9,2.9c-0.1,0.6-0.1,1.2,0,1.7c0.1,0.5,0.2,0.9,0.5,1.2C180.6,39.9,181,40.1,181.4,40.1z"/>
	<path d="M193.9,42.9c-1.1,0-1.9-0.3-2.6-0.8c-0.7-0.5-1.2-1.3-1.5-2.3s-0.4-2.1-0.3-3.3c0.2-2,0.8-3.6,1.9-4.7
		c1-1.1,2.3-1.7,3.8-1.7c1.1,0,2,0.3,2.7,0.8c0.7,0.6,1.2,1.3,1.5,2.3s0.4,2.1,0.3,3.3c-0.1,1.2-0.5,2.3-0.9,3.3
		c-0.5,1-1.1,1.7-2,2.3C196,42.6,195,42.9,193.9,42.9z M194,40.1c0.4,0,0.8-0.2,1.2-0.5c0.4-0.3,0.6-0.8,0.9-1.3
		c0.2-0.6,0.4-1.3,0.5-2.1c0.1-0.4,0.1-0.9,0.1-1.3c0-0.4-0.1-0.8-0.2-1.1c-0.1-0.3-0.3-0.6-0.5-0.8c-0.2-0.2-0.5-0.3-0.8-0.3
		c-0.6,0-1.2,0.3-1.7,1s-0.8,1.6-0.9,2.9c-0.1,0.6-0.1,1.2,0,1.7c0.1,0.5,0.2,0.9,0.5,1.2C193.3,39.9,193.6,40.1,194,40.1z"/>
	<path d="M206.6,42.9c-0.8,0-1.6-0.1-2.3-0.4c-0.7-0.3-1.2-0.6-1.6-0.9c-0.4-0.3-0.7-0.7-0.9-1.1c-0.2-0.4-0.1-0.8,0.2-1.2
		c0.3-0.4,0.7-0.6,1-0.6c0.4,0,0.7,0.1,1.1,0.4c0.2,0.2,0.6,0.4,1.1,0.6c0.5,0.2,1,0.3,1.5,0.3c0.3,0,0.5-0.1,0.7-0.2
		c0.2-0.1,0.3-0.3,0.3-0.5c0-0.1,0-0.3-0.1-0.4c-0.1-0.1-0.3-0.3-0.6-0.5c-0.3-0.2-0.7-0.5-1.4-0.9c-1.1-0.7-1.9-1.3-2.4-1.9
		c-0.5-0.6-0.7-1.3-0.7-2.1c0-1.1,0.4-1.9,1.1-2.5s1.8-0.9,3.1-0.9c0.5,0,1,0.1,1.6,0.2c0.6,0.1,1.2,0.4,1.8,0.8
		c0.5,0.4,0.9,0.8,1.1,1.2c0.2,0.4,0.1,0.9-0.1,1.2c-0.2,0.3-0.6,0.5-1,0.5c-0.4,0-0.8-0.1-1.3-0.5c-0.3-0.2-0.6-0.4-1-0.5
		c-0.4-0.1-0.8-0.2-1.2-0.2c-0.3,0-0.6,0.1-0.8,0.2c-0.2,0.1-0.3,0.3-0.3,0.5c0,0.2,0.2,0.5,0.6,0.8c0.4,0.3,0.8,0.5,1.3,0.8
		c0.7,0.4,1.3,0.8,1.8,1.2c0.5,0.4,0.8,0.8,1.1,1.3c0.2,0.5,0.4,1,0.4,1.7c0,0.8-0.2,1.5-0.6,2.1c-0.4,0.5-0.9,0.9-1.5,1.2
		C207.9,42.7,207.3,42.9,206.6,42.9z"/>
	<path d="M217.8,43c-0.8,0-1.6-0.2-2.2-0.6c-0.6-0.4-1.1-0.9-1.4-1.5c-0.4-0.6-0.6-1.4-0.7-2.1c-0.1-0.8-0.2-1.6-0.1-2.4
		c0.2-1.4,0.5-2.5,1.1-3.5c0.6-0.9,1.3-1.6,2.2-2.1c0.9-0.5,1.8-0.7,2.7-0.7c0.7,0,1.3,0.1,1.8,0.4c0.5,0.3,0.9,0.6,1.2,1
		c0.3,0.4,0.4,0.9,0.4,1.4c0,0.4-0.2,0.9-0.5,1.4c-0.3,0.5-0.8,1-1.4,1.5c-0.6,0.5-1.4,1.1-2.4,1.8c-1,0.7-2.1,1.4-3.4,2.3l-0.2-2.6
		c0.7-0.4,1.3-0.8,1.9-1.2c0.6-0.4,1.1-0.8,1.6-1.2c0.4-0.4,0.8-0.7,1-1c0.2-0.3,0.4-0.5,0.4-0.7c0-0.1-0.1-0.2-0.1-0.3
		c-0.1-0.1-0.3-0.1-0.5-0.1c-0.6,0-1.3,0.3-1.9,0.9c-0.6,0.6-1,1.6-1.1,2.8c-0.1,0.6-0.1,1.2,0,1.8c0.1,0.5,0.3,1,0.6,1.3
		c0.3,0.3,0.7,0.5,1.1,0.5c0.4,0,0.8-0.1,1.3-0.4c0.4-0.3,0.7-0.6,1-1.1c0.2-0.3,0.5-0.6,0.8-0.7c0.3-0.1,0.7-0.1,1.1,0.2
		c0.4,0.2,0.6,0.5,0.7,0.9c0.1,0.4,0.1,0.7-0.1,1.1c-0.5,0.9-1.2,1.6-2,2.1C219.9,42.7,218.9,43,217.8,43z"/>
	<path d="M243.7,47.2c-0.2,2.1-0.9,3.6-2,4.7c-1.1,1.1-2.4,1.6-4.1,1.6c-0.9,0-1.7-0.2-2.4-0.6c-0.7-0.4-1.3-0.8-1.6-1.2
		c-0.3-0.4-0.5-0.8-0.4-1.2c0.1-0.4,0.3-0.8,0.7-1c0.4-0.2,0.7-0.3,1-0.2c0.3,0.1,0.5,0.2,0.7,0.5c0.6,0.6,1.4,1,2.2,1
		c0.8,0,1.4-0.3,1.9-0.9c0.5-0.6,0.8-1.6,0.9-2.9l1.6-15.3c0.1-0.5,0.3-0.8,0.6-1c0.3-0.2,0.7-0.3,1.1-0.3c0.4,0,0.8,0.1,1.1,0.4
		c0.3,0.3,0.4,0.7,0.3,1.2L243.7,47.2z M237.4,42.9c-1,0-1.8-0.4-2.4-1.1s-0.7-1.8-0.6-3.2l0.8-6.7c0-0.4,0.2-0.7,0.4-1
		c0.2-0.3,0.6-0.5,1.2-0.5c0.6,0,1,0.2,1.2,0.5c0.2,0.3,0.3,0.7,0.2,1.2l-0.8,6.7c0,0.5,0,0.8,0.1,1c0.1,0.2,0.3,0.3,0.5,0.3
		c0.3,0,0.6-0.1,1-0.3s0.8-0.7,1.4-1.3c0.5-0.6,1.1-1.5,1.7-2.6l-0.4,4.2c-0.7,1-1.4,1.7-2.1,2.2C238.8,42.6,238.1,42.9,237.4,42.9z
		"/>
	<path d="M252.1,42.9c-1.1,0-1.9-0.3-2.6-0.8c-0.7-0.5-1.2-1.3-1.5-2.3s-0.4-2.1-0.3-3.3c0.2-2,0.8-3.6,1.9-4.7s2.3-1.7,3.8-1.7
		c1.1,0,2,0.3,2.7,0.8c0.7,0.6,1.2,1.3,1.5,2.3c0.3,1,0.4,2.1,0.3,3.3c-0.1,1.2-0.5,2.3-0.9,3.3c-0.5,1-1.1,1.7-1.9,2.3
		C254.1,42.6,253.2,42.9,252.1,42.9z M252.2,40.1c0.4,0,0.8-0.2,1.2-0.5c0.3-0.3,0.7-0.8,0.9-1.3c0.2-0.6,0.4-1.3,0.5-2.1
		c0.1-0.4,0.1-0.9,0.1-1.3c0-0.4-0.1-0.8-0.2-1.1c-0.1-0.3-0.3-0.6-0.5-0.8c-0.2-0.2-0.5-0.3-0.8-0.3c-0.6,0-1.2,0.3-1.7,1
		s-0.8,1.6-0.9,2.9c-0.1,0.6-0.1,1.2,0,1.7c0.1,0.5,0.2,0.9,0.5,1.2C251.5,39.9,251.8,40.1,252.2,40.1z"/>
	<path d="M263.4,42.9c-1,0-1.8-0.4-2.4-1.1s-0.7-1.8-0.5-3.2l0.8-6.8c0-0.3,0.2-0.7,0.4-1c0.2-0.3,0.6-0.5,1.2-0.5
		c0.6,0,1,0.2,1.2,0.5c0.2,0.3,0.3,0.7,0.2,1.2l-0.8,6.7c-0.1,0.5,0,0.8,0.1,1c0.1,0.2,0.3,0.3,0.5,0.3c0.3,0,0.6-0.1,1-0.3
		c0.4-0.2,0.8-0.6,1.4-1.3c0.5-0.6,1.1-1.5,1.7-2.6l-0.4,4.1c-0.7,1-1.4,1.7-2.2,2.2C264.9,42.6,264.1,42.9,263.4,42.9z M268.5,42.8
		c-0.5,0-0.8-0.1-1.1-0.4c-0.2-0.3-0.3-0.6-0.2-1.1l1.1-9.5c0-0.3,0.1-0.6,0.3-1c0.2-0.3,0.6-0.5,1.3-0.5c0.6,0,0.9,0.2,1.2,0.5
		s0.3,0.7,0.3,1.2l-1.1,9.5c0,0.5-0.2,0.8-0.5,1C269.4,42.7,269,42.8,268.5,42.8z"/>
	<path d="M274.9,42.8c-0.5,0-0.9-0.2-1.1-0.5c-0.2-0.3-0.3-0.7-0.3-1.2l1-9.5c0.1-0.5,0.2-0.8,0.6-1c0.3-0.2,0.7-0.3,1.2-0.3
		c0.5,0,0.9,0.1,1.1,0.4c0.2,0.3,0.3,0.7,0.3,1.1l-1.1,9.5c0,0.3-0.2,0.7-0.4,1C275.9,42.7,275.5,42.8,274.9,42.8z M283.2,34.5
		c-0.4,0.1-0.8,0.1-1.2,0c-0.4-0.1-0.6-0.4-0.8-0.9c-0.1-0.3-0.1-0.5-0.3-0.6c-0.1-0.1-0.3-0.2-0.4-0.2c-0.3,0-0.7,0.2-1.1,0.7
		c-0.4,0.5-1,1.2-1.6,2.2c-0.6,1-1.3,2.4-2.2,4.2l0.4-4.5c0.7-1.7,1.4-3,2.1-3.9s1.7-1.4,2.8-1.4c0.9,0,1.5,0.3,2,0.8
		c0.5,0.5,0.8,1.1,1,1.8c0.1,0.5,0.1,0.9-0.1,1.2C283.8,34.2,283.5,34.4,283.2,34.5z"/>
	<path d="M153.2,77.6l-2.1-9.1c-0.1-0.6-0.1-1.2,0.2-1.6s0.7-0.6,1.2-0.6c0.3,0,0.6,0.1,0.9,0.3c0.3,0.2,0.4,0.5,0.5,0.8l1.3,7.1
		l-0.3-0.1l2.7-7.3c0.1-0.3,0.3-0.5,0.6-0.6c0.3-0.2,0.6-0.2,0.8-0.2c0.3,0,0.6,0.1,0.9,0.3c0.3,0.2,0.4,0.5,0.5,0.8l1,7.1l-0.3-0.1
		l3-7.3c0.1-0.3,0.3-0.5,0.6-0.6c0.3-0.1,0.6-0.2,0.9-0.2c0.6,0,1,0.3,1.2,0.7s0.3,1,0,1.6l-4.3,9.1c-0.2,0.3-0.4,0.6-0.7,0.8
		s-0.6,0.3-0.9,0.3c-0.4,0-0.7-0.1-1-0.3c-0.3-0.2-0.4-0.5-0.5-0.9l-1.1-6.5l0.4,0.1l-2.5,6.7c-0.1,0.3-0.4,0.6-0.6,0.8
		c-0.3,0.2-0.6,0.3-1,0.3c-0.3,0-0.6-0.1-0.9-0.3S153.3,78,153.2,77.6z"/>
	<path d="M172.7,79c-0.8,0-1.6-0.2-2.2-0.6c-0.6-0.4-1.1-0.9-1.4-1.5c-0.4-0.6-0.6-1.4-0.7-2.1c-0.1-0.8-0.2-1.6-0.1-2.4
		c0.2-1.4,0.5-2.5,1.1-3.5c0.6-0.9,1.3-1.6,2.2-2.1c0.9-0.5,1.8-0.7,2.7-0.7c0.7,0,1.3,0.1,1.8,0.4c0.5,0.3,0.9,0.6,1.2,1
		c0.3,0.4,0.4,0.9,0.4,1.4c0,0.4-0.2,0.9-0.5,1.4s-0.8,1-1.4,1.5c-0.6,0.5-1.4,1.1-2.4,1.8s-2.1,1.4-3.4,2.3l-0.2-2.6
		c0.7-0.4,1.3-0.8,1.9-1.2s1.1-0.8,1.6-1.2c0.4-0.4,0.8-0.7,1-1s0.4-0.5,0.4-0.7c0-0.1-0.1-0.2-0.1-0.3c-0.1-0.1-0.3-0.1-0.5-0.1
		c-0.6,0-1.3,0.3-1.9,0.9s-1,1.6-1.1,2.8c-0.1,0.6-0.1,1.2,0,1.8s0.3,1,0.6,1.3c0.3,0.3,0.7,0.5,1.1,0.5c0.4,0,0.8-0.1,1.3-0.4
		c0.4-0.3,0.7-0.6,1-1.1c0.2-0.3,0.5-0.6,0.8-0.7c0.3-0.1,0.7-0.1,1.1,0.2c0.4,0.2,0.6,0.5,0.7,0.9c0.1,0.4,0.1,0.7-0.1,1.1
		c-0.5,0.9-1.2,1.6-2,2.1C174.8,78.7,173.8,79,172.7,79z"/>
	<path d="M184.6,78.9c-1,0-1.9-0.3-2.5-0.9s-1-1.4-1.2-2.4c-0.2-1-0.3-2-0.2-3c0.2-1.4,0.5-2.5,1-3.5c0.5-1,1.2-1.7,2-2.2
		c0.8-0.5,1.6-0.8,2.6-0.8c0.6,0,1.3,0.2,2,0.5s1.3,0.8,1.7,1.4l-0.4,3.2c-0.6-0.9-1.2-1.6-1.8-1.8s-1.1-0.4-1.5-0.4
		c-0.6,0-1.2,0.3-1.6,1c-0.4,0.7-0.7,1.6-0.9,2.9c-0.1,0.6-0.1,1.2,0,1.7s0.2,0.9,0.4,1.2c0.2,0.3,0.5,0.4,0.9,0.4
		c0.4,0,0.7-0.1,1-0.4c0.3-0.3,0.6-0.7,0.9-1.2c0.3-0.5,0.5-1.2,0.8-2c0.2-0.8,0.5-1.7,0.6-2.8l0.2,5.4c-0.2,0.4-0.4,0.8-0.7,1.2
		c-0.2,0.4-0.5,0.8-0.8,1.2c-0.3,0.4-0.7,0.7-1.1,1C185.5,78.7,185.1,78.9,184.6,78.9z M188.9,78.8c-0.4,0-0.7-0.1-1-0.4
		c-0.3-0.3-0.4-0.6-0.4-1.1l1-9.6c0-0.5,0.2-0.8,0.5-1c0.3-0.2,0.7-0.3,1-0.3c0.4,0,0.8,0.1,1.1,0.4s0.5,0.7,0.4,1.2l-1,9.5
		c-0.1,0.4-0.2,0.8-0.6,1C189.6,78.7,189.3,78.8,188.9,78.8z"/>
	<path d="M194.1,89.5c-0.5,0-0.9-0.2-1.1-0.5c-0.2-0.3-0.4-0.7-0.3-1.2l2.1-19.7c0.1-0.5,0.2-0.9,0.6-1.3c0.3-0.3,0.7-0.5,1.1-0.5
		c0.5,0,0.9,0.2,1.1,0.5c0.3,0.3,0.4,0.7,0.3,1.3L195.7,88c0,0.4-0.2,0.8-0.5,1.1S194.5,89.5,194.1,89.5z M199.2,78.9
		c-0.6,0-1.3-0.2-2-0.5c-0.7-0.3-1.3-0.8-1.7-1.4l0.4-3.2c0.7,0.9,1.3,1.5,1.9,1.8s1.1,0.5,1.5,0.5c0.6,0,1.2-0.3,1.6-1
		c0.5-0.6,0.7-1.6,0.9-2.9c0.1-0.6,0.1-1.2,0-1.7c-0.1-0.5-0.2-0.9-0.5-1.2c-0.2-0.3-0.5-0.4-0.9-0.4c-0.4,0-0.7,0.1-1,0.4
		c-0.3,0.3-0.6,0.7-0.9,1.2c-0.3,0.5-0.5,1.2-0.8,2c-0.2,0.8-0.4,1.7-0.6,2.8l-0.1-5.4c0.2-0.4,0.4-0.8,0.7-1.2
		c0.2-0.5,0.5-0.9,0.8-1.3s0.7-0.7,1.1-1c0.4-0.2,0.9-0.4,1.4-0.4c1,0,1.8,0.3,2.4,1c0.6,0.6,1,1.5,1.2,2.4c0.2,1,0.3,2,0.2,3
		c-0.1,1.4-0.5,2.5-1,3.5s-1.2,1.7-2,2.2S200.1,78.9,199.2,78.9z"/>
	<path d="M211.7,78.9c-1.1,0-1.9-0.3-2.6-0.8c-0.7-0.5-1.2-1.3-1.5-2.3s-0.4-2.1-0.3-3.3c0.2-2,0.8-3.6,1.9-4.7
		c1-1.1,2.3-1.7,3.8-1.7c1.1,0,2,0.3,2.7,0.8c0.7,0.6,1.2,1.3,1.5,2.3s0.4,2.1,0.3,3.3c-0.1,1.2-0.5,2.3-0.9,3.3
		c-0.5,1-1.1,1.7-2,2.3S212.8,78.9,211.7,78.9z M211.8,76.1c0.4,0,0.8-0.2,1.2-0.5c0.4-0.3,0.6-0.8,0.9-1.3c0.2-0.6,0.4-1.3,0.5-2.1
		c0.1-0.4,0.1-0.9,0.1-1.3s-0.1-0.8-0.2-1.1s-0.3-0.6-0.5-0.8c-0.2-0.2-0.5-0.3-0.8-0.3c-0.6,0-1.2,0.3-1.7,1
		c-0.5,0.7-0.8,1.6-0.9,2.9c-0.1,0.6-0.1,1.2,0,1.7c0.1,0.5,0.2,0.9,0.5,1.2C211.1,75.9,211.4,76.1,211.8,76.1z"/>
	<path d="M221.2,78.8c-0.6,0-0.9-0.2-1.2-0.5s-0.3-0.7-0.3-1.2l1.1-9.5c0.1-0.5,0.2-0.8,0.5-1c0.3-0.2,0.7-0.3,1.2-0.3
		c0.5,0,0.9,0.1,1.1,0.4c0.2,0.3,0.3,0.6,0.2,1.1l-1.1,9.5c0,0.3-0.1,0.7-0.3,1C222.3,78.7,221.8,78.8,221.2,78.8z M228.2,78.8
		c-0.6,0-1-0.2-1.2-0.5c-0.2-0.3-0.3-0.7-0.2-1.2l0.8-6.7c0.1-0.5,0-0.9-0.1-1.2c-0.1-0.3-0.3-0.4-0.5-0.4c-0.4,0-0.9,0.3-1.6,1
		s-1.5,1.8-2.5,3.6l0.5-4.2c0.7-1,1.4-1.8,2.1-2.4c0.7-0.5,1.5-0.8,2.2-0.8c1,0,1.8,0.4,2.4,1.2c0.5,0.8,0.7,1.9,0.5,3.3l-0.8,6.7
		c-0.1,0.3-0.2,0.7-0.4,1C229.1,78.7,228.8,78.8,228.2,78.8z"/>
	<path d="M244.4,78.8c-0.6,0-1-0.2-1.4-0.6c-0.4-0.4-0.6-0.9-0.6-1.5c0-0.5,0.2-1,0.6-1.4c0.4-0.4,0.9-0.6,1.4-0.6
		c0.5,0,1,0.2,1.4,0.6c0.4,0.4,0.6,0.9,0.6,1.4c0,0.6-0.2,1-0.6,1.5C245.4,78.6,244.9,78.8,244.4,78.8z"/>
	<path d="M253.1,78.8c-0.6,0-1-0.2-1.4-0.6c-0.4-0.4-0.6-0.9-0.6-1.5c0-0.5,0.2-1,0.6-1.4c0.4-0.4,0.9-0.6,1.4-0.6
		c0.5,0,1,0.2,1.4,0.6c0.4,0.4,0.6,0.9,0.6,1.4c0,0.6-0.2,1-0.6,1.5C254.1,78.6,253.6,78.8,253.1,78.8z"/>
	<path d="M261.7,78.8c-0.6,0-1-0.2-1.4-0.6c-0.4-0.4-0.6-0.9-0.6-1.5c0-0.5,0.2-1,0.6-1.4c0.4-0.4,0.9-0.6,1.4-0.6
		c0.5,0,1,0.2,1.4,0.6c0.4,0.4,0.6,0.9,0.6,1.4c0,0.6-0.2,1-0.6,1.5C262.7,78.6,262.3,78.8,261.7,78.8z"/>
</g>
</svg>
