<?xml version="1.0" encoding="utf-8"?>
<!-- Generator: Adobe Illustrator 24.1.0, SVG Export Plug-In . SVG Version: 6.00 Build 0)  -->
<svg version="1.1" id="Layer_1" xmlns="http://www.w3.org/2000/svg" xmlns:xlink="http://www.w3.org/1999/xlink" x="0px" y="0px"
	 viewBox="0 0 330.5 184.2" style="enable-background:new 0 0 330.5 184.2;" xml:space="preserve">
<style type="text/css">
	.st0{fill:#020203;}
	.st1{fill:#020303;}
	.st2{fill:none;}
	.st3{font-family:'EduSABeginner-SemiBold';}
	.st4{font-size:30px;}
</style>
<path class="st0" d="M54,64.2c-22.8,0-38.4,15-41.4,38.4L9,100.7l-9-4.1v27.6c0,12,5.9,19.9,13.1,22.9c6,24,24.7,36.5,40.9,37.1
	c16.2-0.6,34.9-13.1,40.9-37.1c7.2-3,13.1-10.9,13.1-22.9V96.6l-8.4,4.1l-3.6,1.9C92.4,79.2,76.8,64.2,54,64.2z M30.6,88.2H78
	c4.2,6.6,6.6,15.6,6.6,24v6h6c1.2,0,1.8,0,6-2.4c-0.6,3-0.6,6-0.6,8.4c0,8.4-3.5,11.4-7.1,12l-4.3,0.6L84,141
	c-4.2,19.8-18,30.5-30,31.1c-12-0.6-26.4-11.3-30-31.1l-0.6-4.3l-4.3-0.6c-3.6-0.6-7.1-3.6-7.1-12v-8.4c4.2,2.4,4.8,2.4,6,2.4h6v-6
	C24,103.8,25.8,94.8,30.6,88.2z M30,100.2c0,0,3,12,18,12v-6C36.6,106.2,30,100.2,30,100.2z M78,100.2c0,0-6.6,6-18,6v6
	C75,112.2,78,100.2,78,100.2z M39,118.2c-5,0-9,4-9,9c0,5,4,9,9,9s9-4,9-9C48,122.2,44,118.2,39,118.2z M69,118.2c-5,0-9,4-9,9
	c0,5,4,9,9,9s9-4,9-9C78,122.2,74,118.2,69,118.2z"/>
<g>
	<path class="st1" d="M323.2,28.2c0-11.2-6.7-18.7-18-20.2c-3-0.4-6.2-0.5-9.2-0.5c-48.9,0-97.8,0-146.8,0c-3.3,0-6.7,0.1-10,0.7
		c-11.1,1.9-16.4,7.9-16.1,18c0.7,21.9,0.9,43.9,0,65.8c-0.6,14.7,8,19.4,19.7,20.4c7.2,0.6,14.4,0.5,21.6,0.2
		c4.1-0.2,5.4,1.2,5.2,5.2c-0.1,2.7-0.2,5.4-0.2,8.3c0.5,0.1,1,0.2,1.5,0.3c0,0,0,0,0,0c0.1-0.1,0.1-0.3,0.2-0.4
		c2.2-3.3,0.9-9.5,0.3-13.3c-0.8-4.7-2.8-5.7-7.1-6.3h-24.9c-2.4,0-4.2-1-5.3-2.4c-3.1-2.6-4.3-6.9-3.6-10.8V48.3
		c-1.1-5.2-2.4-10.4-2.3-15.8c0.1-5.9,2.2-11.7,6.1-15.3c0.1-0.1,0.2-0.2,0.3-0.3c2.8-2.5,6.5-3.9,11-3.5h79.5
		c0.9-0.1,1.8-0.1,2.7-0.2c15.4-0.9,30.8-1.3,46.2-1c13,0.2,26-1.1,38.9,1.6c4.4,0.9,8.4,6.1,8,10.5c-0.5,5.6-1,11.2-1.7,16.8v53
		c0,2.9-0.9,5.1-2.3,6.8c-1.6,3-4.7,5.2-9.1,5.2c-5,2-11.5,1.6-16.6,1.8c-13,0.5-26.1,0.1-39.1,0.3c-13,0.2-25.1,2-37.7,5.1
		c-1.6,0.4-3.2,0.7-4.8,1.1c-1.8,0.7-3.7,1.3-5.6,2c-2.6,1-5.1,2.4-7.7,3.2c-1.9,1.1-3.9,2.1-6,3c-4.6,2.1-9.1,4.7-12.8,8.2
		c-0.1,0.1-0.2,0.2-0.3,0.2c0.6,0.3,1.2,0.6,1.7,0.9c8.7-3.5,17-6.8,25.1-10.6c13.1-6.1,26.4-9.6,41.2-8.9c18.7,0.9,37.6,0.2,56.4,0
		c12.2-0.1,22.1-7.4,21.8-22.2C322.9,69.6,323.3,48.9,323.2,28.2z"/>
</g>
<rect x="150.6" y="27.1" class="st2" width="145.6" height="63.1"/>
<text transform="matrix(1 0 0 1 150.5607 50.2526)"><tspan x="0" y="0" class="st3 st4">choose your</tspan><tspan x="0" y="36" class="st3 st4">weapon ...</tspan></text>
</svg>
