<?xml version="1.0" encoding="utf-8"?>
<!-- Generator: Adobe Illustrator 24.1.0, SVG Export Plug-In . SVG Version: 6.00 Build 0)  -->
<svg version="1.1" id="Layer_1" xmlns="http://www.w3.org/2000/svg" xmlns:xlink="http://www.w3.org/1999/xlink" x="0px" y="0px"
	 viewBox="0 0 97.9 123.9" style="enable-background:new 0 0 97.9 123.9;" xml:space="preserve">
<g id="Layer_2_1_">
	<g id="Layer_9">
		<path d="M90.2,16.2C79.1,11.3,67.9,6.5,56.8,1.5c-4.4-2.1-9.6-2-13.9,0.3c-9.2,4.7-18.4,9.2-27.6,14.1c-5.1,2.7-8.4,6.7-9,12.9
			C5.8,34.9,4.7,41,2.9,46.9c-4.6,15-3.2,29.9,0.2,44.9c0.6,3.2,0.8,6.4,0.7,9.6c0,0.3,0.1,0.7,0,1.1c0.1,0.7,0.2,1.4,0.2,2.1
			c0,0.1,0,0.2,0,0.3c0,0.5,0,1,0.1,1.5c0,0.2,0,0.5,0.1,0.7s0.2,0.7,0.2,1c0.2,0.4,0.4,0.7,0.8,1c0.3,0.2,0.5,0.6,0.7,0.9
			c10.8,8,23.6,12.8,37,14l0.8-0.2l0.5-0.2c0.4-0.2,0.9-0.4,1.3-0.7l0.2-0.2c0.3-0.2,0.5-0.5,0.8-0.8c-0.4,0.3,0.3-1.2,0.1-0.1l0,0
			c0.2-0.9,0.4-1.8,0.4-2.8c-0.1-0.3-0.1-0.7-0.2-1c0-0.1-0.1-0.2-0.1-0.3c-0.1-0.2-0.2-0.5-0.2-0.7c-1.1-2.6-1.6-6.5-1.9-12.3
			c-0.3-5.5-0.5-11-0.8-16.5c-0.3-4.3,1.3-7.5,4.6-10.4c10.3-9,20.5-18.1,31.6-26.1c4.8-3.4,5.8-6.9,2.7-12.1c6,0.1,9.9-2.3,11.3-8
			c0.2-0.6,0.5-1.3,0.8-1.8C99.7,21.5,99.2,20.1,90.2,16.2z M94.2,24.9c-1,1.5-2.2,1.7-3.8,0.7c-8.9-5.6-18.8-9.3-28.2-13.8
			c-5-2.5-10.8-2.5-15.8-0.2C40.9,14,35.2,15.9,29.6,18c-1.3,0.5-3.4,0.5-2.8,2.7s2.6,0.9,3.8,0.5c5.5-1.9,11.1-3.6,16.4-6.1
			c5-2.4,9.6-2.1,14.3,0c8.8,4,17.6,8,26.4,11.9c2,0.9,3.7,1.8,2.8,4.4c-0.8,2.4-1.8,5-5,4.7c-2.5-0.3-4.9-0.7-7.3-1.3
			c-10.9-2.2-21.8-5-33.1-3.7c-4.2,0.5-8.6,1.2-9,6.8c-0.3,4.3,3.6,8.7,8.5,9.8c6.5,1.5,12.1-1.1,17.7-3.7c2.7-1.2,5.3-2.8,8-4.1
			c2.4-1.3,5.3-1.2,7.6,0.3c3.9,2.6,4.1,5.7,0.4,8.6c-10.8,8.4-21.4,17.1-31.7,26c-4.2,3.6-6.3,7.8-6.2,13.4
			c0.1,9.3,0.8,18.7,2.1,27.9c0.5,3.5-0.3,4.8-4.1,4.2c-10.4-1.6-20.3-5.6-28.9-11.6c-1-0.7-2-1.3-2-2.7C7.9,94,4.2,82.6,3.4,70.8
			c-0.1-1,0-2,0-3C2.8,56.4,8,46,8.7,34.9C9.3,24.6,14.5,19,23.6,15.4c6.6-2.6,12.9-6.2,19.1-9.6c4.7-2.6,9.2-3,14.2-0.6
			c10.6,5.1,21.3,10.2,32.4,14.3c1.2,0.5,2.4,1.1,3.6,1.8C94.2,22.2,95.4,23.1,94.2,24.9L94.2,24.9z M68.9,36.2
			c-5.6,3.8-10.8,6.7-16.7,8c-4,0.9-8,0.9-11.1-2.4c-2.9-3.1-1.9-6.8,2.1-7.4C51.7,33.1,60,34.4,68.9,36.2z"/>
	</g>
</g>
</svg>
