<svg xmlns="http://www.w3.org/2000/svg" viewBox="0 0 147.97 147.98"><g id="Layer_2" data-name="Layer 2"><g id="Layer_11" data-name="Layer 11"><path d="M74,0c40.71,0,73.93,33,74,73.43A74,74,0,0,1,74,148C32.88,148,0,114.85,0,73.45,0,33,33.25,0,74,0ZM28.09,127.49c.12-4.75.18-8.41-.63-12-3.38-15-4.78-29.9-.22-44.9A91.12,91.12,0,0,0,30.7,52.45c.57-6.16,3.93-10.16,9-12.86,9.12-4.82,18.37-9.39,27.57-14.06a15.26,15.26,0,0,1,13.91-.28c11.08,5,22.23,9.78,33.35,14.65,9,4,9.5,5.31,4.58,13.62a6.89,6.89,0,0,0-.81,1.82c-1.4,5.68-5.29,8.06-11.27,8,3.15,5.2,2.14,8.66-2.65,12.09-11.1,8-21.33,17-31.6,26.06-3.31,2.9-4.91,6.1-4.63,10.44.36,5.48.52,11,.85,16.46,1,17.11,2.82,18.28,19.86,14.92,28.33-5.59,54-32.89,55.46-64.58,1.29-27.67-9.48-49.14-32.31-64C89.94.32,66.1-.53,42.53,10.87,11.42,25.92-3.6,61.13,6.23,94.28,10,107.11,17.14,118,28.09,127.49Zm-.32-36c0,1-.05,2,0,3,.78,11.78,4.49,23.22,4.21,35.14,0,1.37,1.05,2,2,2.68a67.56,67.56,0,0,0,28.89,11.61c3.76.58,4.63-.74,4.1-4.25a209,209,0,0,1-2.13-27.86c-.11-5.69,2-9.81,6.15-13.45Q86.48,85,102.68,72.43c3.66-2.83,3.47-6-.44-8.56a7.24,7.24,0,0,0-7.58-.34c-2.7,1.3-5.24,2.9-8,4.13C81.07,70.18,75.41,72.84,69,71.32c-4.87-1.15-8.79-5.57-8.5-9.83.37-5.55,4.81-6.24,9-6.75,11.29-1.38,22.15,1.42,33.05,3.7a59.63,59.63,0,0,0,7.33,1.32c3.21.26,4.14-2.31,5-4.7.88-2.56-.81-3.5-2.8-4.39-8.81-3.92-17.57-8-26.37-11.9-4.75-2.12-9.32-2.47-14.32,0C66.09,41.28,60.45,43,55,44.83c-1.18.41-3.06,1.82-3.79-.45s1.44-2.2,2.76-2.69c5.6-2.11,11.29-4,16.78-6.35a18.22,18.22,0,0,1,15.84.19c9.45,4.5,19.3,8.2,28.21,13.79,1.63,1,2.77.86,3.78-.67,1.19-1.79,0-2.78-1.34-3.6a20.91,20.91,0,0,0-3.55-1.83C102.56,39.12,91.89,34,81.27,28.91c-5-2.43-9.48-2-14.22.59-6.27,3.42-12.53,7-19.14,9.64C38.84,42.75,33.65,48.27,33,58.59,32.38,69.66,27.13,80.13,27.77,91.5ZM93.24,60C84.31,58.08,76,56.86,67.58,58.09c-4,.59-5,4.35-2.1,7.42,3.1,3.32,7.07,3.27,11.09,2.4C82.46,66.62,87.65,63.79,93.24,60Z"/></g></g></svg>