<?xml version="1.0" encoding="utf-8"?>
<!-- Generator: Adobe Illustrator 24.1.0, SVG Export Plug-In . SVG Version: 6.00 Build 0)  -->
<svg version="1.1" id="Layer_1" xmlns="http://www.w3.org/2000/svg" xmlns:xlink="http://www.w3.org/1999/xlink" x="0px" y="0px"
	 viewBox="0 0 69 115.8" style="enable-background:new 0 0 69 115.8;" xml:space="preserve">
<g id="Layer_2_1_">
	<g id="Layer_7">
		<path d="M2.5,20.8c-3.6,15.9-3.6,32,1.4,47.9c2.4,7.8,4.4,15.7,6.7,23.5c1.1,4.2,1.3,8.6,0.7,12.9c0,0.7-0.2,1.5-0.5,2.1
			c0,0.3-0.1,0.6-0.2,0.9c0.1,0.3,0.1,0.5,0.1,0.8c0.2,0.4,0.3,0.9,0.3,1.4c0.4,0.7,0.7,1.5,1.1,2.2c0.4,0.3,0.9,0.6,1.4,0.8
			c0.1,0.1,0.2,0.1,0.3,0.2c12.6,3.3,25.8,3.2,38.3-0.3c0.3-0.3,0.6-0.7,0.4-0.5c0.2-0.2,0.4-0.5,0.6-0.7c0,0,0.2-0.6,0.3-0.8
			c0.1-0.4,0.2-0.7,0.3-1.1s0.1-0.5,0.2-0.7l0,0c-0.6-8.5,0.2-16.9,2.4-25.1c0.6-1.8,1.8-3.2,3.4-4.2c4.6-3.1,6.2-7.6,6.6-12.8
			c0.7-9,0.8-18,2.5-26.9c0.8-4.1-2.1-7.9-6.5-9.3c-4.2-1.4-7.1,0.2-9.2,3.9c-0.5,0.8-0.4,2-1.9,2.4c-0.7-8.4-1.3-16.9-3.9-25
			c-1.9-6-4.9-8.3-11.1-7.4c-2.5,0.4-3.7-0.8-5.1-2.1C26.6-1,22.8-1,18.4,3.1c-1,0.9-1.6,2-3.1,2.4C7.6,7.6,4.1,14,2.5,20.8z
			 M15.1,8.9c2.8-0.7,3,1.1,3.4,2.9c2,9,3.1,18.1,3.2,27.3c0,2,0,4,0.1,6c0.1,1.5-0.8,3.9,1.8,3.8c2,0,1.5-2.2,1.6-3.6
			C25.4,34.1,24.3,23,22,12.1c-0.1-0.7-0.3-1.3-0.4-2c-0.3-2.2-1.8-4.6,1.3-6.1c3.3-1.5,5.3,0.4,7.4,2.4c1.6,1.3,1.2,2.9,1.1,4.6
			c-0.9,11.3,0.9,22.6,1.3,33.9c0,1.1-0.1,2.6,1.5,2.6c2,0.1,1.9-1.6,1.8-2.9c-0.4-6.8-0.9-13.6-1.3-20.4c-0.2-3.7-0.2-7.3-0.1-11
			c0.1-2.3-0.2-4.9,3.2-5.3c3.2-0.3,5.1,1.4,6.1,4.1c1.6,4.6,2.6,9.3,3,14.1c0.6,6.5,0.8,12.9,1.3,19.4c0.1,1.2-0.4,3,1.5,3.2
			c1.9,0.3,2-1.4,2.5-2.6c1.3-3.1,2.5-6.1,3.8-9.2c1.1-2.6,2.9-3.6,5.6-2.7c2.7,0.9,4.6,2.3,3.9,5.5c-1.9,9.2-1.9,18.6-2.6,27.8
			c-0.3,3.2-1.1,6.4-3.9,8.3c-5.4,3.8-7.3,9.3-7.8,15.5c-0.3,5-0.8,10-0.9,15c0,2.4-0.6,3.6-3,4.1c-10.1,2.4-20.1,2-30.2,0
			c-2.5-0.5-3.2-1.6-2.7-4.1c1.4-6.4,0.4-12.5-1.5-18.6C10.1,79,8,69.9,5.5,60.9C1.8,47.4,3.6,33.8,5.9,20.3
			c0.2-1.5,0.6-3.5,2.2-3.6c2.3-0.2,1.9,2.4,2.3,3.8c2.4,8.4,2.6,17.1,1.5,25.7c-0.2,1.7-1.9,4.6,1.1,4.9c2.6,0.2,1.9-3,2.2-4.8
			c1.6-10.4,0.7-21.1-2.8-31c-0.3-0.6-0.5-1.2-0.6-1.9C11.2,10.6,12.7,9.6,15.1,8.9L15.1,8.9z"/>
	</g>
</g>
</svg>
