<svg xmlns="http://www.w3.org/2000/svg" viewBox="0 0 148 148"><g id="Layer_2" data-name="Layer 2"><g id="Layer_5" data-name="Layer 5"><path d="M74,148a74,74,0,1,1,74-74.51A73.86,73.86,0,0,1,74,148ZM65.26,91.33c-.72,1.39.28,2.11.61,3,1.46,3.93.83,7.18-2.93,9.5-4,2.44-8.7,2.24-11.35-1-5.68-7-12.48-12.94-18.91-19.22-3.74-3.66-6.13-7.8-5.59-13.28a7.9,7.9,0,0,0-1-5.31,74.78,74.78,0,0,0-17.69-18c-7.33,21.56-6.93,42,4.07,61.66,15.37,27.46,46.6,41.14,77.52,34.34,28.18-6.19,52.69-33.08,54.35-63.88,2.13-39.57-25.63-72.31-65.09-75.37a69.19,69.19,0,0,0-39.05,8.1c-2.82,1.53-3.68,2.76-1.12,5.39,3,3.14,6.24,5.94,10.31,7.71,7.46,3.26,14.8,6.82,22.32,10C87,41.22,99.34,51.54,109.25,64.56c4.23,5.55,6.77,12.34,3.38,19.62-.64,1.38-.21,2.59-.13,3.89.36,6-2,9-8,10-2,.32-3.59.44-4.91,2.59-3.26,5.32-6.91,6.14-12.75,3.74C79,101.15,72.19,96.19,65.26,91.33ZM102.41,95c2.84-.29,5.66-.62,6.58-4.11.87-3.31-1.95-3.72-3.79-4.91-.56-.35-1.18-.62-1.77-.92A142.62,142.62,0,0,1,76,66.11c-1.07-.92-3-1.91-1.77-3.51,1.6-2,2.87.18,4.08,1.09,1.6,1.2,3.12,2.5,4.66,3.77a132.57,132.57,0,0,0,22.86,15.09c1.63.86,3.13,1.89,4.38-.71,1.1-2.3,1.24-4.12-1.12-5.56a10.59,10.59,0,0,0-1.84-.75A63.62,63.62,0,0,1,81.66,57.77c-1.2-1.35-4.1-2.85-2.27-4.74,2.12-2.18,3.3,1.08,4.43,2.29,6,6.38,12.67,11.79,20.69,15.37,1.32.58,3,2.54,4.35.68.89-1.24-.44-2.88-1.4-4C98.57,57,89.34,46.93,76.57,41,68.12,37.14,59.78,33,51.2,29.38c-6-2.5-11.29-5.69-15.24-10.85-1.55-2-2.83-2.22-4.85-.61-8,6.42-14.76,13.87-19.42,23.13-1.14,2.28-.59,3.45,1.22,5,3.77,3.26,7.27,6.83,10.84,10.32,4.44,4.36,7.37,9.32,6.83,15.91-.27,3.36,1.58,6,3.91,8.32,6.65,6.52,13.82,12.53,19.61,19.91,2,2.5,4.39,1.86,6.7.5s2.86-3.5,1.57-6c-1.54-3-3.07-5.9-4.62-8.84-.62-1.18-1.6-2.47-.36-3.63s2.46.23,3.43.93C66.09,87.3,71.24,91.25,76.55,95a58.59,58.59,0,0,0,12.76,6.75c2.68,1,5.26.63,7-2,1.91-2.82-.3-4.34-2-5.83-2.74-2.42-5.59-4.73-8.51-6.93-5.45-4.11-11-8.08-16.47-12.16-1-.77-2.38-1.74-1.06-3.22,1.08-1.23,2.17-.17,3,.5,8.91,7,18.72,12.77,26.81,20.79C99.38,94.06,100.41,95.38,102.41,95Z"/></g></g></svg>