<svg id="Layer_1" data-name="Layer 1" xmlns="http://www.w3.org/2000/svg" viewBox="0 0 323.36 176.75"><defs><style>.cls-1{fill:#010101;}.cls-2{fill:#010202;}.cls-3{fill:#1d1d1b;}</style></defs><path class="cls-1" d="M54,56.75c-22.8,0-38.44,15-41.44,38.44L9,93.32,0,89.19v27.56c0,12,5.93,19.88,13.12,22.88,6,24,24.68,36.52,40.88,37.12,16.2-.6,34.88-13.12,40.88-37.12,7.19-3,13.12-10.88,13.12-22.88V89.19l-8.44,4.13L96,95.19C92.39,71.8,76.8,56.75,54,56.75Zm-23.44,24H78c4.2,6.61,6.56,15.61,6.56,24v6h6c1.2,0,1.81,0,6-2.43a41.84,41.84,0,0,0-.56,8.43c0,8.4-3.52,11.4-7.12,12l-4.32.57L84,133.63c-4.2,19.8-18,30.52-30,31.12-12-.6-26.39-11.32-30-31.12l-.56-4.31-4.32-.57c-3.6-.6-7.12-3.6-7.12-12v-8.43c4.2,2.39,4.8,2.43,6,2.43h6v-6C24,96.36,25.76,87.36,30.56,80.75Zm-.56,12s3,12,18,12v-6C36.61,98.75,30,92.75,30,92.75Zm48,0s-6.61,6-18,6v6C75,104.75,78,92.75,78,92.75Zm-39,18a9,9,0,1,0,9,9A9,9,0,0,0,39,110.75Zm30,0a9,9,0,1,0,9,9A9,9,0,0,0,69,110.75Z"/><path class="cls-2" d="M323.22,20.79c0-11.25-6.7-18.69-18-20.24A69.54,69.54,0,0,0,296,0Q222.6,0,149.22,0a58.47,58.47,0,0,0-10,.7c-11.09,1.94-16.45,7.94-16.15,18,.67,21.93.91,43.93,0,65.84-.63,14.69,8,19.44,19.67,20.36a187.65,187.65,0,0,0,21.61.18c4.12-.16,5.38,1.18,5.17,5.17-.15,2.7-.18,5.41-.16,8.26l1.48.3,0,0a4,4,0,0,1,.23-.39c2.2-3.34.94-9.53.33-13.29-.76-4.69-2.81-5.68-7.06-6.34H139.5a6.55,6.55,0,0,1-5.33-2.42,11.5,11.5,0,0,1-3.64-10.79V40.86c-1.13-5.22-2.4-10.42-2.33-15.79.09-5.88,2.16-11.68,6.11-15.34l.29-.26a14.58,14.58,0,0,1,11-3.54h79.53l2.71-.15c15.38-.87,30.77-1.26,46.17-1,13,.22,26-1.07,38.87,1.56,4.38.89,8.4,6.07,8,10.53-.47,5.57-1,11.19-1.67,16.81v53a10.29,10.29,0,0,1-2.35,6.83,9.88,9.88,0,0,1-9.1,5.21c-5,2-11.5,1.63-16.65,1.82-13,.49-26.06.13-39.09.29a165.41,165.41,0,0,0-37.71,5.08c-1.62.4-3.23.74-4.84,1.06-1.82.7-3.7,1.31-5.56,2-2.63,1-5.14,2.4-7.75,3.21-1.94,1.08-3.91,2.09-6,3a45.82,45.82,0,0,0-12.76,8.16c-.1.09-.2.16-.3.24a18.5,18.5,0,0,1,1.72.88c8.69-3.5,17-6.81,25.06-10.59,13.13-6.15,26.42-9.63,41.23-8.93,18.75.89,37.58.17,56.37,0,12.16-.08,22.14-7.36,21.84-22.18C322.93,62.15,323.3,41.47,323.22,20.79Z"/><path class="cls-3" d="M144.62,52.86a.92.92,0,0,1-.79-.34,1.12,1.12,0,0,1-.22-.84l1.49-13.8a1.5,1.5,0,0,1,.4-.89,1,1,0,0,1,.78-.34,1,1,0,0,1,.78.32,1.11,1.11,0,0,1,.22.91l-1.51,13.93a1.15,1.15,0,0,1-1.15,1Zm3.59-7.46a3.38,3.38,0,0,1-1.37-.33,3.2,3.2,0,0,1-1.21-1l.25-2.25a4,4,0,0,0,1.3,1.28,2.34,2.34,0,0,0,1,.32,1.36,1.36,0,0,0,1.14-.68,4.21,4.21,0,0,0,.6-2,3.81,3.81,0,0,0,0-1.21,1.78,1.78,0,0,0-.32-.84.79.79,0,0,0-.64-.3,1.12,1.12,0,0,0-.72.29,3.25,3.25,0,0,0-.63.86,8.24,8.24,0,0,0-.53,1.41,17,17,0,0,0-.43,1.95l-.11-3.78c.14-.25.3-.53.46-.85a6.47,6.47,0,0,1,.58-.89,2.83,2.83,0,0,1,.75-.68,1.77,1.77,0,0,1,1-.26,2.26,2.26,0,0,1,1.72.67,3.63,3.63,0,0,1,.87,1.7,6.81,6.81,0,0,1,.12,2.12,6.3,6.3,0,0,1-.71,2.44A4.12,4.12,0,0,1,150,44.89,3.29,3.29,0,0,1,148.21,45.4Z"/><path class="cls-3" d="M155,45.38a1,1,0,0,1-.79-.32,1.22,1.22,0,0,1-.2-.9l1.52-13.92a1.23,1.23,0,0,1,.33-.77,1.07,1.07,0,0,1,.8-.3,1,1,0,0,1,.82.33,1.11,1.11,0,0,1,.21.82l-1.51,14a1.27,1.27,0,0,1-.38.84A1.19,1.19,0,0,1,155,45.38Z"/><path class="cls-3" d="M161.52,45.4a2.26,2.26,0,0,1-1.72-.66,3.54,3.54,0,0,1-.87-1.69,6.51,6.51,0,0,1-.14-2.12,6.66,6.66,0,0,1,.72-2.44A4,4,0,0,1,160.88,37a3.13,3.13,0,0,1,3.17-.17,3.23,3.23,0,0,1,1.21,1L165,40a4,4,0,0,0-1.28-1.29,2.53,2.53,0,0,0-1.07-.3,1.38,1.38,0,0,0-1.15.69,4.49,4.49,0,0,0-.6,2,6.1,6.1,0,0,0,0,1.21,1.61,1.61,0,0,0,.31.83.79.79,0,0,0,.64.29,1,1,0,0,0,.7-.28,3,3,0,0,0,.62-.84,7.71,7.71,0,0,0,.55-1.4,19.27,19.27,0,0,0,.44-2l.1,3.78-.46.83a6.93,6.93,0,0,1-.58.87,2.65,2.65,0,0,1-.74.68A1.74,1.74,0,0,1,161.52,45.4Zm3,0a1,1,0,0,1-.72-.28.94.94,0,0,1-.25-.79l.69-6.72a.91.91,0,0,1,.37-.71,1.19,1.19,0,0,1,.72-.23,1.14,1.14,0,0,1,.76.28,1,1,0,0,1,.29.85l-.71,6.64a1,1,0,0,1-.4.71A1.19,1.19,0,0,1,164.55,45.38Z"/><path class="cls-3" d="M174.6,48.41a5.29,5.29,0,0,1-1.37,3.3,3.84,3.84,0,0,1-2.85,1.15,3.59,3.59,0,0,1-1.66-.39,3.86,3.86,0,0,1-1.15-.85,1,1,0,0,1-.27-.85,1,1,0,0,1,.46-.7.79.79,0,0,1,.69-.15,1.08,1.08,0,0,1,.48.31,2.12,2.12,0,0,0,1.58.67,1.63,1.63,0,0,0,1.31-.62,3.79,3.79,0,0,0,.66-2l1.12-10.69a.94.94,0,0,1,.41-.71,1.27,1.27,0,0,1,.74-.23,1.07,1.07,0,0,1,.75.29.92.92,0,0,1,.24.84Zm-4.41-3a1.91,1.91,0,0,1-1.65-.78,3.07,3.07,0,0,1-.4-2.22l.58-4.7A1.55,1.55,0,0,1,169,37a.93.93,0,0,1,.81-.33.89.89,0,0,1,.83.34,1.35,1.35,0,0,1,.15.81l-.54,4.71a1.43,1.43,0,0,0,.06.71.39.39,0,0,0,.38.21,1.43,1.43,0,0,0,.68-.24,4.11,4.11,0,0,0,1-.89,13.93,13.93,0,0,0,1.2-1.85l-.29,3a6.12,6.12,0,0,1-1.5,1.51A2.82,2.82,0,0,1,170.19,45.4Z"/><path class="cls-3" d="M186.53,45.4a4.41,4.41,0,0,1-1.6-.28,4,4,0,0,1-1.13-.6,1.85,1.85,0,0,1-.62-.76.86.86,0,0,1,.12-.86,1,1,0,0,1,.71-.44,1.27,1.27,0,0,1,.8.3,5.45,5.45,0,0,0,.75.43,2.24,2.24,0,0,0,1,.24.84.84,0,0,0,.49-.14.44.44,0,0,0,.19-.37.51.51,0,0,0-.09-.28,1.55,1.55,0,0,0-.39-.37,10.7,10.7,0,0,0-1-.6,5.49,5.49,0,0,1-1.65-1.34,2.36,2.36,0,0,1-.47-1.46,2.2,2.2,0,0,1,.78-1.77,3.28,3.28,0,0,1,2.16-.66,4.54,4.54,0,0,1,1.1.14,4.13,4.13,0,0,1,1.23.55,1.81,1.81,0,0,1,.74.84.88.88,0,0,1-.09.86.85.85,0,0,1-.67.38,1.55,1.55,0,0,1-.93-.34,2.21,2.21,0,0,0-.69-.33,2.56,2.56,0,0,0-.82-.13,1,1,0,0,0-.56.14.41.41,0,0,0-.19.36c0,.17.12.35.38.53a10,10,0,0,0,.94.57,10.1,10.1,0,0,1,1.23.81,2.86,2.86,0,0,1,.75.9,2.76,2.76,0,0,1-.14,2.6,2.47,2.47,0,0,1-1,.82A3.44,3.44,0,0,1,186.53,45.4Z"/><path class="cls-3" d="M194.41,45.4a2.92,2.92,0,0,1-1.85-.57,3.19,3.19,0,0,1-1.05-1.59,6.08,6.08,0,0,1-.21-2.31,5.68,5.68,0,0,1,1.31-3.31,3.47,3.47,0,0,1,2.68-1.18,3,3,0,0,1,1.9.57,3.22,3.22,0,0,1,1.07,1.59,5.39,5.39,0,0,1,.18,2.31,6.9,6.9,0,0,1-.66,2.32,4.22,4.22,0,0,1-1.37,1.6A3.48,3.48,0,0,1,194.41,45.4Zm.08-1.95a1.16,1.16,0,0,0,.83-.34,2.54,2.54,0,0,0,.63-.93,4.75,4.75,0,0,0,.35-1.44,5.33,5.33,0,0,0,0-.88,2.56,2.56,0,0,0-.16-.76,1.2,1.2,0,0,0-.37-.52.83.83,0,0,0-.56-.19,1.44,1.44,0,0,0-1.18.72,4.42,4.42,0,0,0-.63,2,4.08,4.08,0,0,0,0,1.21,1.63,1.63,0,0,0,.36.83A.91.91,0,0,0,194.49,43.45Z"/><path class="cls-3" d="M201,45.38a.89.89,0,0,1-.81-.34,1.3,1.3,0,0,1-.17-.81l.75-6.64a1,1,0,0,1,.38-.71,1.35,1.35,0,0,1,.84-.23.87.87,0,0,1,.75.28,1.14,1.14,0,0,1,.15.77l-.77,6.65a1.82,1.82,0,0,1-.21.7C201.82,45.27,201.52,45.38,201,45.38Zm4.75,0A.87.87,0,0,1,205,45a1.36,1.36,0,0,1-.16-.81l.57-4.71a1.9,1.9,0,0,0-.05-.83.4.4,0,0,0-.39-.28,1.12,1.12,0,0,0-.64.29,5.11,5.11,0,0,0-.87,1,18.35,18.35,0,0,0-1.18,1.91l.31-2.92A8.69,8.69,0,0,1,204,37a2.23,2.23,0,0,1,1.47-.57,1.84,1.84,0,0,1,1.67.86,3.45,3.45,0,0,1,.37,2.33l-.59,4.7a1.71,1.71,0,0,1-.26.71A.91.91,0,0,1,205.79,45.38Zm4.77,0a.87.87,0,0,1-.83-.34,1.29,1.29,0,0,1-.16-.81l.57-4.71a1.74,1.74,0,0,0-.06-.83.38.38,0,0,0-.38-.28,1.14,1.14,0,0,0-.65.29,5.89,5.89,0,0,0-.87,1A18.54,18.54,0,0,0,207,41.6l.31-2.92A8.69,8.69,0,0,1,208.73,37a2.23,2.23,0,0,1,1.47-.57,1.84,1.84,0,0,1,1.67.86,3.51,3.51,0,0,1,.39,2.33l-.61,4.7a1.86,1.86,0,0,1-.26.71A.92.92,0,0,1,210.56,45.38Z"/><path class="cls-3" d="M217.15,45.47a2.73,2.73,0,0,1-1.51-.41,3,3,0,0,1-1-1.09,4.65,4.65,0,0,1-.5-1.5,6.52,6.52,0,0,1-.06-1.65,5.77,5.77,0,0,1,.8-2.41,4.2,4.2,0,0,1,1.55-1.48,3.8,3.8,0,0,1,1.85-.49,2.73,2.73,0,0,1,1.26.27,2.12,2.12,0,0,1,.82.71,1.67,1.67,0,0,1,0,1.95,5.72,5.72,0,0,1-1,1.06c-.43.37-1,.8-1.65,1.27s-1.47,1-2.38,1.6l-.14-1.8c.49-.28.94-.57,1.36-.85s.79-.56,1.1-.81a6.64,6.64,0,0,0,.74-.67.86.86,0,0,0,.26-.47.32.32,0,0,0-.1-.23.54.54,0,0,0-.38-.1,1.83,1.83,0,0,0-1.3.65,3.2,3.2,0,0,0-.76,2,3.92,3.92,0,0,0,0,1.24,1.83,1.83,0,0,0,.42.92,1,1,0,0,0,.8.34,1.6,1.6,0,0,0,.88-.28,1.86,1.86,0,0,0,.67-.75,1.11,1.11,0,0,1,.55-.48.88.88,0,0,1,.76.13,1,1,0,0,1,.49.6,1,1,0,0,1-.08.74,3.77,3.77,0,0,1-1.41,1.45A4,4,0,0,1,217.15,45.47Z"/><path class="cls-3" d="M231,52.86a3.53,3.53,0,0,1-1.66-.39,3.79,3.79,0,0,1-1.16-.85,1,1,0,0,1-.27-.85,1,1,0,0,1,.46-.7.79.79,0,0,1,.69-.15,1.18,1.18,0,0,1,.49.31,2.1,2.1,0,0,0,1.57.67,1.63,1.63,0,0,0,1.31-.62,3.78,3.78,0,0,0,.67-2l1.13-10.56a1.13,1.13,0,0,1,.39-.78,1.1,1.1,0,0,1,.74-.29,1,1,0,0,1,.77.34,1.07,1.07,0,0,1,.26.92l-1.13,10.5a5.19,5.19,0,0,1-1.4,3.3A3.89,3.89,0,0,1,231,52.86Zm.46-7.46a2.26,2.26,0,0,1-1.72-.66,3.54,3.54,0,0,1-.87-1.69,6.24,6.24,0,0,1-.14-2.12,6.86,6.86,0,0,1,.71-2.44A4,4,0,0,1,230.77,37a3.27,3.27,0,0,1,1.79-.52,3.35,3.35,0,0,1,1.38.35,3.23,3.23,0,0,1,1.21,1L234.89,40a3.8,3.8,0,0,0-1.28-1.29,2.46,2.46,0,0,0-1.07-.3,1.35,1.35,0,0,0-1.14.69,4.25,4.25,0,0,0-.6,2,6.1,6.1,0,0,0,0,1.21,1.6,1.6,0,0,0,.3.83.81.81,0,0,0,.64.29,1,1,0,0,0,.71-.28,3.15,3.15,0,0,0,.62-.84,7.75,7.75,0,0,0,.54-1.4,15,15,0,0,0,.44-2l.11,3.78-.46.83a6.93,6.93,0,0,1-.58.87,2.83,2.83,0,0,1-.75.68A1.73,1.73,0,0,1,231.41,45.4Z"/><path class="cls-3" d="M240.73,45.4a2.26,2.26,0,0,1-1.72-.66,3.54,3.54,0,0,1-.87-1.69,6.51,6.51,0,0,1-.14-2.12,6.66,6.66,0,0,1,.72-2.44A4,4,0,0,1,240.09,37a3.13,3.13,0,0,1,3.17-.17,3.23,3.23,0,0,1,1.21,1L244.22,40a4,4,0,0,0-1.28-1.29,2.53,2.53,0,0,0-1.07-.3,1.38,1.38,0,0,0-1.15.69,4.49,4.49,0,0,0-.6,2,6.1,6.1,0,0,0,0,1.21,1.7,1.7,0,0,0,.31.83.79.79,0,0,0,.64.29,1,1,0,0,0,.7-.28,2.77,2.77,0,0,0,.62-.84,7.71,7.71,0,0,0,.55-1.4,16.89,16.89,0,0,0,.44-2l.1,3.78-.46.83a6.93,6.93,0,0,1-.58.87,2.65,2.65,0,0,1-.74.68A1.74,1.74,0,0,1,240.73,45.4Zm3,0a1,1,0,0,1-.72-.28.94.94,0,0,1-.25-.79l.69-6.72a.91.91,0,0,1,.37-.71,1.2,1.2,0,0,1,.73-.23,1.11,1.11,0,0,1,.75.28,1,1,0,0,1,.3.85l-.72,6.64a1,1,0,0,1-.4.71A1.19,1.19,0,0,1,243.76,45.38Z"/><path class="cls-3" d="M248.15,45.38a.87.87,0,0,1-.81-.34,1.24,1.24,0,0,1-.18-.81l.75-6.64a1,1,0,0,1,.38-.71,1.35,1.35,0,0,1,.84-.23.86.86,0,0,1,.75.28,1.14,1.14,0,0,1,.15.77l-.77,6.65a1.82,1.82,0,0,1-.21.7Q248.85,45.38,248.15,45.38Zm4.74,0a.89.89,0,0,1-.83-.34,1.44,1.44,0,0,1-.16-.81l.57-4.71a1.76,1.76,0,0,0-.05-.83.4.4,0,0,0-.39-.28,1.12,1.12,0,0,0-.64.29,5.11,5.11,0,0,0-.87,1,18.35,18.35,0,0,0-1.18,1.91l.32-2.92a9.06,9.06,0,0,1,1.4-1.67,2.23,2.23,0,0,1,1.47-.57,1.83,1.83,0,0,1,1.67.86,3.4,3.4,0,0,1,.37,2.33l-.59,4.7a1.71,1.71,0,0,1-.26.71A.91.91,0,0,1,252.89,45.38Zm4.77,0a.87.87,0,0,1-.83-.34,1.36,1.36,0,0,1-.16-.81l.57-4.71a1.9,1.9,0,0,0-.05-.83.4.4,0,0,0-.39-.28,1.09,1.09,0,0,0-.64.29,5.45,5.45,0,0,0-.88,1,20.49,20.49,0,0,0-1.17,1.91l.31-2.92A8.69,8.69,0,0,1,255.83,37a2.23,2.23,0,0,1,1.47-.57,1.84,1.84,0,0,1,1.67.86,3.51,3.51,0,0,1,.39,2.33l-.61,4.7a1.86,1.86,0,0,1-.26.71A.92.92,0,0,1,257.66,45.38Z"/><path class="cls-3" d="M264.25,45.47a2.73,2.73,0,0,1-1.51-.41,3.08,3.08,0,0,1-1-1.09,4.65,4.65,0,0,1-.5-1.5,6.09,6.09,0,0,1-.05-1.65,5.63,5.63,0,0,1,.79-2.41,4.2,4.2,0,0,1,1.55-1.48,3.86,3.86,0,0,1,1.86-.49,2.73,2.73,0,0,1,1.26.27,2.28,2.28,0,0,1,.82.71,1.82,1.82,0,0,1,.29,1,1.73,1.73,0,0,1-.33,1,5.62,5.62,0,0,1-1,1.06c-.44.37-1,.8-1.66,1.27s-1.47,1-2.38,1.6l-.14-1.8c.49-.28.94-.57,1.36-.85s.79-.56,1.1-.81a5.84,5.84,0,0,0,.74-.67.8.8,0,0,0,.26-.47.32.32,0,0,0-.1-.23.54.54,0,0,0-.38-.1A1.83,1.83,0,0,0,264,39a3.25,3.25,0,0,0-.76,2,4.24,4.24,0,0,0,0,1.24,1.83,1.83,0,0,0,.42.92,1,1,0,0,0,.8.34,1.58,1.58,0,0,0,.88-.28,1.79,1.79,0,0,0,.67-.75,1.2,1.2,0,0,1,.55-.48.88.88,0,0,1,.76.13,1,1,0,0,1,.49.6,1,1,0,0,1-.07.74,3.87,3.87,0,0,1-1.42,1.45A4,4,0,0,1,264.25,45.47Z"/><path class="cls-3" d="M273,45.4a4.47,4.47,0,0,1-1.61-.28,3.93,3.93,0,0,1-1.12-.6,1.71,1.71,0,0,1-.62-.76.88.88,0,0,1,.11-.86,1,1,0,0,1,.72-.44,1.25,1.25,0,0,1,.79.3,5.45,5.45,0,0,0,.75.43,2.31,2.31,0,0,0,1,.24.83.83,0,0,0,.48-.14.42.42,0,0,0,.19-.37.6.6,0,0,0-.08-.28,2,2,0,0,0-.39-.37,11.21,11.21,0,0,0-1-.6,5.76,5.76,0,0,1-1.65-1.34,2.42,2.42,0,0,1-.47-1.46,2.18,2.18,0,0,1,.79-1.77,3.23,3.23,0,0,1,2.15-.66,4.48,4.48,0,0,1,1.1.14,4.13,4.13,0,0,1,1.23.55,1.84,1.84,0,0,1,.75.84.88.88,0,0,1-.1.86.85.85,0,0,1-.67.38,1.5,1.5,0,0,1-.92-.34,2.39,2.39,0,0,0-.7-.33,2.51,2.51,0,0,0-.82-.13,1,1,0,0,0-.55.14.42.42,0,0,0-.2.36c0,.17.13.35.39.53s.57.37.93.57a10.1,10.1,0,0,1,1.23.81,3,3,0,0,1,.76.9,2.51,2.51,0,0,1,.26,1.16,2.39,2.39,0,0,1-.41,1.44,2.36,2.36,0,0,1-1.05.82A3.39,3.39,0,0,1,273,45.4Z"/><path class="cls-3" d="M145.27,63.8a1.2,1.2,0,0,1-.82-.26.89.89,0,0,1-.29-.71,1,1,0,0,1,.27-.72,1.11,1.11,0,0,1,.82-.26H150a1.09,1.09,0,0,1,.8.26,1,1,0,0,1,.27.72.94.94,0,0,1-.26.71,1.09,1.09,0,0,1-.79.26Zm1.57,6.78a1.2,1.2,0,0,1-.78-.29.83.83,0,0,1-.29-.8l1.3-12.16a.9.9,0,0,1,.39-.68,1.24,1.24,0,0,1,.71-.24,1.16,1.16,0,0,1,.8.32,1,1,0,0,1,.29.87l-1.3,12a1.06,1.06,0,0,1-.38.72A1.19,1.19,0,0,1,146.84,70.58Z"/><path class="cls-3" d="M155,70.6a2.91,2.91,0,0,1-1.84-.57,3.2,3.2,0,0,1-1.06-1.59,6.09,6.09,0,0,1-.2-2.31,5.68,5.68,0,0,1,1.31-3.31,3.47,3.47,0,0,1,2.68-1.18,3.06,3.06,0,0,1,1.9.57,3.29,3.29,0,0,1,1.07,1.59,5.73,5.73,0,0,1,.18,2.31,6.68,6.68,0,0,1-.67,2.32A4.11,4.11,0,0,1,157,70,3.54,3.54,0,0,1,155,70.6Zm.09-1.95a1.18,1.18,0,0,0,.83-.34,2.8,2.8,0,0,0,.63-.93,4.76,4.76,0,0,0,.34-1.44,4.46,4.46,0,0,0,.05-.88,2.56,2.56,0,0,0-.16-.76,1.29,1.29,0,0,0-.37-.52.84.84,0,0,0-.57-.19,1.43,1.43,0,0,0-1.17.72,4.15,4.15,0,0,0-.63,2,4.08,4.08,0,0,0,0,1.21,1.54,1.54,0,0,0,.35.83A1,1,0,0,0,155.12,68.65Z"/><path class="cls-3" d="M169.92,70.6a4.41,4.41,0,0,1-1.6-.28,4,4,0,0,1-1.13-.6,1.85,1.85,0,0,1-.62-.76.86.86,0,0,1,.12-.86,1,1,0,0,1,.71-.44,1.27,1.27,0,0,1,.8.3,5.45,5.45,0,0,0,.75.43,2.24,2.24,0,0,0,1,.24.84.84,0,0,0,.49-.14.44.44,0,0,0,.19-.36.52.52,0,0,0-.09-.29,1.55,1.55,0,0,0-.39-.37,10.7,10.7,0,0,0-.95-.6,5.49,5.49,0,0,1-1.65-1.34,2.36,2.36,0,0,1-.47-1.46,2.2,2.2,0,0,1,.78-1.77,3.28,3.28,0,0,1,2.16-.66,4.54,4.54,0,0,1,1.1.14,4.13,4.13,0,0,1,1.23.55,1.81,1.81,0,0,1,.74.84A.88.88,0,0,1,173,64a.85.85,0,0,1-.67.38,1.55,1.55,0,0,1-.93-.34,2.21,2.21,0,0,0-.69-.33,2.56,2.56,0,0,0-.82-.13,1,1,0,0,0-.56.14.42.42,0,0,0-.2.36c0,.17.13.35.39.53a10,10,0,0,0,.94.57,10.1,10.1,0,0,1,1.23.81,2.86,2.86,0,0,1,.75.9,2.76,2.76,0,0,1-.14,2.6,2.47,2.47,0,0,1-1.05.82A3.44,3.44,0,0,1,169.92,70.6Z"/><path class="cls-3" d="M177.75,70.67a2.75,2.75,0,0,1-1.51-.41,3,3,0,0,1-1-1.09,4.43,4.43,0,0,1-.51-1.5,6.09,6.09,0,0,1-.05-1.65,5.63,5.63,0,0,1,.8-2.41A4.18,4.18,0,0,1,177,62.13a3.86,3.86,0,0,1,1.86-.49,2.73,2.73,0,0,1,1.26.27,2.19,2.19,0,0,1,.82.71,1.82,1.82,0,0,1,.29,1,1.8,1.8,0,0,1-.32,1,6.09,6.09,0,0,1-1,1.06c-.43.37-1,.8-1.66,1.27s-1.46,1-2.37,1.6l-.15-1.8c.49-.28.95-.57,1.37-.85s.78-.56,1.1-.81a6.42,6.42,0,0,0,.73-.67.83.83,0,0,0,.27-.47.33.33,0,0,0-.11-.23.54.54,0,0,0-.38-.1,1.83,1.83,0,0,0-1.3.65,3.25,3.25,0,0,0-.76,2,4.22,4.22,0,0,0,0,1.24,1.83,1.83,0,0,0,.42.92,1,1,0,0,0,.79.34,1.63,1.63,0,0,0,.89-.28,1.94,1.94,0,0,0,.67-.75,1.13,1.13,0,0,1,.54-.48.87.87,0,0,1,.76.13,1,1,0,0,1,.49.59.94.94,0,0,1-.07.75,3.87,3.87,0,0,1-1.42,1.45A4,4,0,0,1,177.75,70.67Z"/><path class="cls-3" d="M186.36,70.67a2.75,2.75,0,0,1-1.51-.41,3,3,0,0,1-1-1.09,4.43,4.43,0,0,1-.51-1.5,6.09,6.09,0,0,1,0-1.65,5.63,5.63,0,0,1,.8-2.41,4.18,4.18,0,0,1,1.54-1.48,3.86,3.86,0,0,1,1.86-.49,2.73,2.73,0,0,1,1.26.27,2.19,2.19,0,0,1,.82.71,1.82,1.82,0,0,1,.29,1,1.8,1.8,0,0,1-.32,1,6.09,6.09,0,0,1-1,1.06c-.43.37-1,.8-1.66,1.27s-1.46,1-2.37,1.6l-.15-1.8c.49-.28,1-.57,1.37-.85s.78-.56,1.1-.81a6.42,6.42,0,0,0,.73-.67.83.83,0,0,0,.27-.47.33.33,0,0,0-.11-.23.54.54,0,0,0-.38-.1,1.83,1.83,0,0,0-1.3.65,3.25,3.25,0,0,0-.76,2,4.22,4.22,0,0,0,0,1.24,1.83,1.83,0,0,0,.42.92,1,1,0,0,0,.79.34,1.63,1.63,0,0,0,.89-.28,1.94,1.94,0,0,0,.67-.75,1.13,1.13,0,0,1,.54-.48.87.87,0,0,1,.76.13,1,1,0,0,1,.49.59.94.94,0,0,1-.07.75,3.87,3.87,0,0,1-1.42,1.45A4,4,0,0,1,186.36,70.67Z"/><path class="cls-3" d="M201,70.6a4.41,4.41,0,0,1-1.6-.28,4.16,4.16,0,0,1-1.13-.6,1.85,1.85,0,0,1-.62-.76.86.86,0,0,1,.12-.86,1,1,0,0,1,.71-.44,1.25,1.25,0,0,1,.8.3,5.45,5.45,0,0,0,.75.43,2.31,2.31,0,0,0,1,.24.83.83,0,0,0,.48-.14.44.44,0,0,0,.19-.36.52.52,0,0,0-.09-.29,1.55,1.55,0,0,0-.39-.37,10.7,10.7,0,0,0-.95-.6,5.76,5.76,0,0,1-1.65-1.34,2.42,2.42,0,0,1-.47-1.46A2.18,2.18,0,0,1,199,62.3a3.23,3.23,0,0,1,2.15-.66,4.54,4.54,0,0,1,1.1.14,4.13,4.13,0,0,1,1.23.55,1.76,1.76,0,0,1,.74.84.88.88,0,0,1-.09.86.85.85,0,0,1-.67.38,1.55,1.55,0,0,1-.93-.34,2.21,2.21,0,0,0-.69-.33,2.51,2.51,0,0,0-.82-.13,1,1,0,0,0-.55.14.4.4,0,0,0-.2.36c0,.17.13.35.39.53a9.77,9.77,0,0,0,.93.57,10.1,10.1,0,0,1,1.23.81,2.86,2.86,0,0,1,.75.9,2.69,2.69,0,0,1-.14,2.6,2.47,2.47,0,0,1-1.05.82A3.4,3.4,0,0,1,201,70.6Z"/><path class="cls-3" d="M208.92,70.6a2.94,2.94,0,0,1-1.85-.57,3.19,3.19,0,0,1-1-1.59,6.08,6.08,0,0,1-.21-2.31,5.68,5.68,0,0,1,1.31-3.31,3.48,3.48,0,0,1,2.68-1.18,3,3,0,0,1,1.9.57,3.22,3.22,0,0,1,1.07,1.59,5.39,5.39,0,0,1,.18,2.31,6.9,6.9,0,0,1-.66,2.32,4.14,4.14,0,0,1-1.37,1.6A3.48,3.48,0,0,1,208.92,70.6Zm.08-1.95a1.16,1.16,0,0,0,.83-.34,2.54,2.54,0,0,0,.63-.93,4.75,4.75,0,0,0,.35-1.44,5.33,5.33,0,0,0,0-.88,2.28,2.28,0,0,0-.16-.76,1.27,1.27,0,0,0-.36-.52.87.87,0,0,0-.57-.19,1.44,1.44,0,0,0-1.18.72,4.38,4.38,0,0,0-.63,2,4.88,4.88,0,0,0,0,1.21,1.63,1.63,0,0,0,.36.83A.91.91,0,0,0,209,68.65Z"/><path class="cls-3" d="M215.55,70.58a.86.86,0,0,1-.8-.34,1.24,1.24,0,0,1-.18-.81l.75-6.64a1,1,0,0,1,.38-.71,1.35,1.35,0,0,1,.84-.23.86.86,0,0,1,.75.28,1.14,1.14,0,0,1,.15.77l-.77,6.65a1.82,1.82,0,0,1-.21.7C216.33,70.47,216,70.58,215.55,70.58Zm4.75,0a.87.87,0,0,1-.83-.34,1.36,1.36,0,0,1-.16-.81l.57-4.71a1.9,1.9,0,0,0,0-.83.4.4,0,0,0-.39-.28,1.12,1.12,0,0,0-.64.29,5.11,5.11,0,0,0-.87,1,18.35,18.35,0,0,0-1.18,1.91l.32-2.92a9.06,9.06,0,0,1,1.4-1.67,2.23,2.23,0,0,1,1.47-.57,1.83,1.83,0,0,1,1.67.86,3.4,3.4,0,0,1,.37,2.33l-.59,4.7a1.71,1.71,0,0,1-.26.71A.91.91,0,0,1,220.3,70.58Zm4.77,0a.87.87,0,0,1-.83-.34,1.29,1.29,0,0,1-.16-.81l.57-4.71a1.74,1.74,0,0,0-.06-.83.38.38,0,0,0-.38-.28,1.09,1.09,0,0,0-.64.29,5.45,5.45,0,0,0-.88,1,20.49,20.49,0,0,0-1.17,1.91l.31-2.92a8.69,8.69,0,0,1,1.41-1.67,2.23,2.23,0,0,1,1.47-.57,1.84,1.84,0,0,1,1.67.86,3.51,3.51,0,0,1,.39,2.33l-.61,4.7a1.86,1.86,0,0,1-.26.71A.92.92,0,0,1,225.07,70.58Z"/><path class="cls-3" d="M231.66,70.67a2.73,2.73,0,0,1-1.51-.41,3.08,3.08,0,0,1-1-1.09,4.65,4.65,0,0,1-.5-1.5,6.52,6.52,0,0,1-.06-1.65,5.77,5.77,0,0,1,.8-2.41,4.2,4.2,0,0,1,1.55-1.48,3.86,3.86,0,0,1,1.86-.49,2.71,2.71,0,0,1,1.25.27,2.05,2.05,0,0,1,.82.71,1.67,1.67,0,0,1,0,1.95,5.62,5.62,0,0,1-1,1.06c-.44.37-1,.8-1.66,1.27s-1.47,1-2.38,1.6l-.14-1.8c.49-.28.94-.57,1.36-.85s.79-.56,1.1-.81a6.64,6.64,0,0,0,.74-.67.86.86,0,0,0,.26-.47.32.32,0,0,0-.1-.23.54.54,0,0,0-.38-.1,1.83,1.83,0,0,0-1.3.65,3.25,3.25,0,0,0-.76,2,3.92,3.92,0,0,0,0,1.24,1.83,1.83,0,0,0,.42.92,1,1,0,0,0,.8.34,1.6,1.6,0,0,0,.88-.28,1.79,1.79,0,0,0,.67-.75,1.15,1.15,0,0,1,.55-.48.88.88,0,0,1,.76.13,1,1,0,0,1,.49.59,1,1,0,0,1-.07.75,3.87,3.87,0,0,1-1.42,1.45A4,4,0,0,1,231.66,70.67Z"/><path class="cls-3" d="M246.34,70.6a4.51,4.51,0,0,1-1.61-.28,4.08,4.08,0,0,1-1.12-.6A1.85,1.85,0,0,1,243,69a.86.86,0,0,1,.12-.86,1,1,0,0,1,.71-.44,1.27,1.27,0,0,1,.8.3,5.24,5.24,0,0,0,.74.43,2.31,2.31,0,0,0,1,.24.78.78,0,0,0,.48-.14.41.41,0,0,0,.19-.36.51.51,0,0,0-.08-.29,2,2,0,0,0-.39-.37,10.7,10.7,0,0,0-1-.6A5.49,5.49,0,0,1,244,65.53a2.37,2.37,0,0,1-.48-1.46,2.21,2.21,0,0,1,.79-1.77,3.25,3.25,0,0,1,2.15-.66,4.56,4.56,0,0,1,1.11.14,4.13,4.13,0,0,1,1.23.55,1.87,1.87,0,0,1,.74.84.88.88,0,0,1-.09.86.87.87,0,0,1-.68.38,1.52,1.52,0,0,1-.92-.34,2.45,2.45,0,0,0-.69-.33,2.56,2.56,0,0,0-.82-.13,1,1,0,0,0-.56.14.42.42,0,0,0-.2.36c0,.17.13.35.39.53a10,10,0,0,0,.94.57,9.2,9.2,0,0,1,1.22.81,2.9,2.9,0,0,1,.76.9,2.37,2.37,0,0,1,.26,1.16,2.32,2.32,0,0,1-.41,1.44,2.36,2.36,0,0,1-1.05.82A3.36,3.36,0,0,1,246.34,70.6Z"/><path class="cls-3" d="M251.88,63.8a1.18,1.18,0,0,1-.81-.26.9.9,0,0,1-.3-.71,1,1,0,0,1,.27-.72,1.14,1.14,0,0,1,.82-.26h4.73a1.1,1.1,0,0,1,.8.26,1,1,0,0,1,.27.72,1,1,0,0,1-.26.71,1.11,1.11,0,0,1-.79.26Zm1.58,6.78a1.2,1.2,0,0,1-.79-.29.85.85,0,0,1-.28-.8l1.3-12.16a.9.9,0,0,1,.39-.68,1.21,1.21,0,0,1,.7-.24,1.17,1.17,0,0,1,.81.32,1,1,0,0,1,.28.87l-1.3,12a1,1,0,0,1-.38.72A1.16,1.16,0,0,1,253.46,70.58Z"/><path class="cls-3" d="M261.27,70.6a2.26,2.26,0,0,1-1.72-.66,3.54,3.54,0,0,1-.87-1.69,6.51,6.51,0,0,1-.14-2.12,6.66,6.66,0,0,1,.72-2.44,4,4,0,0,1,1.37-1.53A3.13,3.13,0,0,1,263.8,62,3.23,3.23,0,0,1,265,63l-.25,2.22a4,4,0,0,0-1.28-1.29,2.53,2.53,0,0,0-1.07-.3,1.38,1.38,0,0,0-1.15.69,4.49,4.49,0,0,0-.6,2,6.1,6.1,0,0,0,0,1.21,1.61,1.61,0,0,0,.31.83.79.79,0,0,0,.64.29,1,1,0,0,0,.7-.28,3,3,0,0,0,.62-.84,7.71,7.71,0,0,0,.55-1.4,16.89,16.89,0,0,0,.44-1.95L264,68l-.46.83a6.93,6.93,0,0,1-.58.87,2.65,2.65,0,0,1-.74.68A1.74,1.74,0,0,1,261.27,70.6Zm3,0a1,1,0,0,1-.72-.28.94.94,0,0,1-.25-.79l.69-6.72a.91.91,0,0,1,.37-.71,1.19,1.19,0,0,1,.72-.23,1.14,1.14,0,0,1,.76.28,1,1,0,0,1,.29.85l-.71,6.64a1,1,0,0,1-.4.71A1.21,1.21,0,0,1,264.3,70.58Z"/><path class="cls-3" d="M268.58,63.8a1.22,1.22,0,0,1-.82-.26.89.89,0,0,1-.29-.71,1,1,0,0,1,.27-.72,1.11,1.11,0,0,1,.82-.26h4.72a1.09,1.09,0,0,1,.8.26,1,1,0,0,1,.27.72.94.94,0,0,1-.26.71,1.09,1.09,0,0,1-.79.26Zm1.57,6.78a1.2,1.2,0,0,1-.78-.29.86.86,0,0,1-.29-.8l1.3-12.16a.9.9,0,0,1,.39-.68,1.24,1.24,0,0,1,.71-.24,1.16,1.16,0,0,1,.8.32,1,1,0,0,1,.29.87l-1.3,12a1.06,1.06,0,0,1-.38.72A1.19,1.19,0,0,1,270.15,70.58Z"/><path class="cls-3" d="M278.45,70.6a4.47,4.47,0,0,1-1.61-.28,4.08,4.08,0,0,1-1.12-.6,1.78,1.78,0,0,1-.62-.76.88.88,0,0,1,.11-.86,1.05,1.05,0,0,1,.72-.44,1.27,1.27,0,0,1,.8.3,4.71,4.71,0,0,0,.74.43,2.31,2.31,0,0,0,1,.24.78.78,0,0,0,.48-.14.41.41,0,0,0,.19-.36.6.6,0,0,0-.08-.29,2,2,0,0,0-.39-.37,10.7,10.7,0,0,0-.95-.6,5.49,5.49,0,0,1-1.65-1.34,2.37,2.37,0,0,1-.48-1.46,2.21,2.21,0,0,1,.79-1.77,3.25,3.25,0,0,1,2.15-.66,4.56,4.56,0,0,1,1.11.14,4.09,4.09,0,0,1,1.22.55,1.84,1.84,0,0,1,.75.84.88.88,0,0,1-.09.86.87.87,0,0,1-.68.38,1.52,1.52,0,0,1-.92-.34,2.45,2.45,0,0,0-.69-.33,2.56,2.56,0,0,0-.82-.13,1,1,0,0,0-.56.14.42.42,0,0,0-.2.36c0,.17.13.35.39.53s.57.37.93.57a10.1,10.1,0,0,1,1.23.81,3,3,0,0,1,.76.9,2.48,2.48,0,0,1,.26,1.16,2.32,2.32,0,0,1-.41,1.44,2.36,2.36,0,0,1-1.05.82A3.36,3.36,0,0,1,278.45,70.6Z"/><path class="cls-3" d="M291.05,70.58a1.32,1.32,0,0,1-1-.43,1.45,1.45,0,0,1-.41-1,1.4,1.4,0,0,1,1.41-1.38,1.32,1.32,0,0,1,1,.41,1.27,1.27,0,0,1,.42,1,1.38,1.38,0,0,1-.42,1A1.31,1.31,0,0,1,291.05,70.58Z"/><path class="cls-3" d="M297.12,70.58a1.3,1.3,0,0,1-1-.43,1.45,1.45,0,0,1-.41-1,1.34,1.34,0,0,1,.41-1,1.32,1.32,0,0,1,1-.41,1.34,1.34,0,0,1,1,.41,1.31,1.31,0,0,1,.42,1,1.42,1.42,0,0,1-.42,1A1.32,1.32,0,0,1,297.12,70.58Z"/><path class="cls-3" d="M303.18,70.58a1.3,1.3,0,0,1-1-.43,1.41,1.41,0,0,1-.41-1,1.4,1.4,0,0,1,1.4-1.38,1.34,1.34,0,0,1,1,.41,1.31,1.31,0,0,1,.42,1,1.42,1.42,0,0,1-.42,1A1.33,1.33,0,0,1,303.18,70.58Z"/></svg>