<svg id="Layer_1" data-name="Layer 1" xmlns="http://www.w3.org/2000/svg" viewBox="0 0 323.36 176.75"><defs><style>.cls-1{fill:#010101;}.cls-2{fill:#010202;}.cls-3{font-size:21px;fill:#1d1d1b;font-family:EduSABeginner-SemiBold, Edu SA Beginner;font-weight:600;}.cls-4{letter-spacing:0em;}.cls-5{letter-spacing:0em;}.cls-6{letter-spacing:0em;}</style></defs><path class="cls-1" d="M54,64.17c-22.8,0-38.44,15-41.44,38.43L9,100.73,0,96.6v27.57C0,136.17,5.93,144,13.12,147c6,24,24.68,36.52,40.88,37.13C70.2,183.56,88.88,171,94.88,147c7.19-3,13.12-10.87,13.12-22.87V96.6l-8.44,4.13L96,102.6C92.39,79.21,76.8,64.17,54,64.17Zm-23.44,24H78c4.2,6.61,6.56,15.61,6.56,24v6h6c1.2,0,1.81,0,6-2.44a41.94,41.94,0,0,0-.56,8.44c0,8.39-3.52,11.39-7.12,12l-4.32.56L84,141c-4.2,19.81-18,30.52-30,31.13-12-.61-26.39-11.32-30-31.13l-.56-4.31-4.32-.56c-3.6-.61-7.12-3.61-7.12-12v-8.44c4.2,2.39,4.8,2.44,6,2.44h6v-6C24,103.78,25.76,94.78,30.56,88.17Zm-.56,12s3,12,18,12v-6C36.61,106.17,30,100.17,30,100.17Zm48,0s-6.61,6-18,6v6C75,112.17,78,100.17,78,100.17Zm-39,18a9,9,0,1,0,9,9A9,9,0,0,0,39,118.17Zm30,0a9,9,0,1,0,9,9A9,9,0,0,0,69,118.17Z" transform="translate(0 -7.41)"/><path class="cls-2" d="M323.22,28.2c0-11.25-6.7-18.69-18-20.24A67.89,67.89,0,0,0,296,7.44q-73.38-.06-146.76,0a58.47,58.47,0,0,0-10,.7c-11.09,1.94-16.45,8-16.15,18,.67,21.93.91,43.93,0,65.84-.63,14.69,8,19.44,19.67,20.36a185.42,185.42,0,0,0,21.61.18c4.12-.16,5.38,1.18,5.17,5.17-.15,2.7-.18,5.41-.16,8.27l1.48.29,0,0a4,4,0,0,1,.23-.39c2.2-3.34.94-9.53.33-13.29-.76-4.69-2.81-5.68-7.06-6.34H139.5a6.52,6.52,0,0,1-5.33-2.42A11.5,11.5,0,0,1,130.53,93V48.27c-1.13-5.22-2.4-10.42-2.33-15.79.09-5.88,2.16-11.68,6.11-15.34l.29-.26a14.53,14.53,0,0,1,11-3.53h79.53l2.71-.16c15.38-.87,30.77-1.25,46.17-1,13,.21,26-1.08,38.87,1.55,4.38.89,8.4,6.07,8,10.53-.47,5.57-1,11.19-1.67,16.81V94a10.29,10.29,0,0,1-2.35,6.83,9.88,9.88,0,0,1-9.1,5.21c-5,2-11.5,1.63-16.65,1.82-13,.49-26.06.13-39.09.3a164.3,164.3,0,0,0-37.71,5.08c-1.62.39-3.23.73-4.84,1-1.82.7-3.7,1.31-5.56,2-2.63,1-5.14,2.39-7.75,3.21-1.94,1.07-3.91,2.08-6,3a45.82,45.82,0,0,0-12.76,8.16c-.1.09-.2.16-.3.24a18.5,18.5,0,0,1,1.72.88c8.69-3.5,17-6.81,25.06-10.59,13.13-6.14,26.42-9.62,41.23-8.93,18.75.89,37.58.18,56.37,0,12.16-.08,22.14-7.36,21.84-22.18C322.93,69.56,323.3,48.88,323.22,28.2Z" transform="translate(0 -7.41)"/><text class="cls-3" transform="translate(144.03 45.38)">play some games<tspan class="cls-4" x="0" y="25.2">t</tspan><tspan x="7.43" y="25.2">o see some s</tspan><tspan class="cls-5" x="106.62" y="25.2">t</tspan><tspan class="cls-6" x="114.05" y="25.2">ats ...</tspan></text></svg>