<svg xmlns="http://www.w3.org/2000/svg" viewBox="0 0 147.97 147.98"><g id="Layer_2" data-name="Layer 2"><g id="Layer_4" data-name="Layer 4"><path d="M148,73.85c-.2,41.34-33.47,74.5-74.4,74.13A73.92,73.92,0,0,1,0,73C.26,32.57,33.6-.16,74.4,0,115.05.16,148.16,33.39,148,73.85ZM73.74,144.44c22.93.13,42.25-9.23,56.21-27.35,12-15.58,16.13-33.29,14-52.63-.15-1.36.18-4.33-2.57-2.21-9.73,7.53-23.14,11.63-21.8,28.59.69,8.56-4.82,16.68-12.83,20.68-12.18,6.1-25.23,10.93-38.75,4.36-6.29-3.06-11.69-8-17.38-12.22-.82-.61-1.14-2-1.5-3.1-.27-.8-.33-1.76-1.19-2C40.7,96.12,42,86.5,35.3,83.6c-.6-.26-.72-2.16-.69-3.28.28-10.17.9-20.29,3.65-30.17,1.49-5.36,4.76-9.24,9.94-11.06,9-3.13,18.25-6.79,27.64-5.88,14.74,1.41,25.88-3.69,35.51-14.21,2.28-2.49,2.76-3.39-.4-5.23C89.57,1.26,67.25-.13,44.84,9.71,13.32,23.55-2.21,56.29,5.38,90.77,11.12,116.82,37.32,145.42,73.74,144.44Zm6.38-29.15c7.77-.2,14.78-2.7,21.81-5.28,5.34-2,8.77-5.69,11.59-10.42,3.89-6.52,3.43-13.79,3.92-20.87a7.11,7.11,0,0,1,3.38-6.12c6.2-4.2,12.14-8.8,18.37-12.94,2.67-1.78,3.45-3.6,2.48-6.63a71.3,71.3,0,0,0-21.92-32.75c-2-1.69-3.26-1.57-5.07.07-4.82,4.35-9.85,8.48-14.61,12.89A9.91,9.91,0,0,1,92,36.1c-13.63-1.05-26.87,1.16-39.87,5.12-5.43,1.66-9.46,4.67-10.88,10.55A130,130,0,0,0,38,79.48c0,1.44-.36,3.37,1.8,3.47s1.87-2,2.1-3.32a171.4,171.4,0,0,1,5-22.39c.44-1.38.57-3.45,2.56-3,2.17.5,1.13,2.34.72,3.72-2.65,8.78-4,17.83-5.77,26.81a13,13,0,0,0-.06,4.45c.44,2.63,2.17,5.38,4.48,5.41,2.64,0,1.75-3.36,2-5.23a153.9,153.9,0,0,1,5.11-22.35c.37-1.2.84-2.36,2.31-2s1.22,1.71.91,2.85q-.77,2.89-1.57,5.78c-2.3,8-3.43,16.26-4.52,24.52-.55,4.17,2,6.15,5.25,6.49,3.55.38,1.45-3.22,2.29-4.87.49-1,.23-2.3.4-3.45.86-5.59,1.7-11.18,2.67-16.75.23-1.33,0-3.58,2.06-3.37s1.24,2.3,1.21,3.67a17.57,17.57,0,0,1-.42,2.46c-1.32,7.71-2.71,15.41-2.75,23.28,0,3.84,1.63,6.56,5.46,7.23,8.82,1.54,15.38-3.51,21.56-8.48,4.81-3.87,3.38-9.67,2.55-14.94-.24-1.56-.09-3.84-1.94-4.21-1.68-.33-2.55,1.84-3.82,2.84-2.4,1.88-.16,3.06.58,4.49.53,1,1.3,2.1.15,3.14a1.37,1.37,0,0,1-2.18-.09c-2.36-3.82-3.55-1-4.89.81-.79,1.06-1.4,2.27-2.24,3.29a1.56,1.56,0,0,1-2.23.07,1.17,1.17,0,0,1-.35-1.74c4.42-4.72,4.43-10.86,5.53-16.66.19-1,.63-2,1.86-1.81s1.41,1.18,1.37,2.29c0,.91-.67,1.9.57,3.08.8-1.6,4.09-1.56,1.58-4.84-1.44-1.89.63-2.61,2.28-2,5.27,2,8.54,6.18,11,11.09.55,1.13.07,2.44-.88,2.36-4.17-.37-2.41,2.57-2.35,4.19a14.35,14.35,0,0,1-7.4,13.75C86.7,111.53,83.39,113.39,80.12,115.29Z"/></g></g></svg>