<svg xmlns="http://www.w3.org/2000/svg" viewBox="0 0 111.06 103.27"><g id="Layer_2" data-name="Layer 2"><g id="Layer_6" data-name="Layer 6"><path d="M111.06,39.75A73.86,73.86,0,0,0,85.36.27C84.44.19,83.52.14,82.59.06a5.45,5.45,0,0,0-2.12.06l-.42.07L79.7.37c-.15.07-.29.16-.43.24A10.71,10.71,0,0,1,77.1,2.85l-.36.4C67.12,13.77,56,18.87,41.24,17.45c-9.4-.9-18.68,2.75-27.64,5.89C8.41,25.15,5.15,29,3.65,34.4.9,44.27.29,54.4,0,64.57c0,1.12.09,3,.7,3.28,6.71,2.9,5.4,12.52,12.61,14.91.87.28.93,1.25,1.19,2,.37,1.1.68,2.49,1.5,3.1,5.7,4.23,11.09,9.17,17.39,12.23,13.52,6.57,26.56,1.73,38.74-4.36,8-4,13.52-12.12,12.84-20.69C83.62,58.13,97,54,106.77,46.49a5.52,5.52,0,0,1,.83-.53c.23-.21.47-.4.72-.59a10.17,10.17,0,0,1,1.75-1.66c.09-.21.18-.42.26-.63s.19-.41.28-.62l.09-.5c.07-.27.15-.55.24-.82C111,40.68,111,40.22,111.06,39.75Zm-6.47,4.15c-6.24,4.15-12.17,8.74-18.37,12.94A7.14,7.14,0,0,0,82.83,63c-.48,7.09,0,14.36-3.92,20.88-2.82,4.73-6.25,8.45-11.59,10.41-7,2.58-14,5.08-21.81,5.29,3.28-1.91,6.59-3.76,9.83-5.73a14.34,14.34,0,0,0,7.4-13.74c-.07-1.62-1.82-4.57,2.35-4.19.94.08,1.43-1.24.87-2.36-2.42-4.91-5.69-9-11-11.09-1.66-.64-3.72.08-2.28,2,2.5,3.27-.78,3.24-1.59,4.83-1.23-1.17-.59-2.16-.56-3.07,0-1.11-.18-2.1-1.37-2.3s-1.67.78-1.87,1.82c-1.1,5.79-1.11,11.94-5.52,16.65a1.17,1.17,0,0,0,.34,1.74A1.54,1.54,0,0,0,44.38,84c.85-1,1.45-2.23,2.25-3.29,1.34-1.79,2.53-4.63,4.88-.81a1.37,1.37,0,0,0,2.19.1c1.14-1,.38-2.12-.15-3.14-.75-1.43-3-2.61-.59-4.5,1.28-1,2.14-3.16,3.83-2.83,1.84.36,1.69,2.64,1.94,4.21C59.56,79,61,84.81,56.18,88.68c-6.18,5-12.74,10-21.56,8.47-3.83-.66-5.49-3.39-5.47-7.23.05-7.86,1.44-15.56,2.75-23.28a17.47,17.47,0,0,0,.43-2.45c0-1.37,1-3.45-1.21-3.67s-1.84,2-2.07,3.36c-1,5.57-1.81,11.17-2.66,16.76-.18,1.15.08,2.47-.41,3.44-.84,1.65,1.27,5.25-2.28,4.88-3.25-.34-5.81-2.32-5.26-6.5C19.54,74.21,20.67,66,23,57.94,23.51,56,24,54.1,24.54,52.17c.3-1.14.69-2.46-.91-2.86s-1.95.8-2.32,2A155.23,155.23,0,0,0,16.2,73.66c-.28,1.87.61,5.26-2,5.22-2.32,0-4-2.77-4.48-5.41A12.74,12.74,0,0,1,9.76,69c1.73-9,3.11-18,5.76-26.82C15.93,40.84,17,39,14.8,38.5c-2-.46-2.12,1.61-2.55,3a168.2,168.2,0,0,0-5,22.39c-.24,1.33,0,3.4-2.11,3.31s-1.83-2-1.79-3.46A130.71,130.71,0,0,1,6.64,36c1.43-5.87,5.46-8.89,10.88-10.54,13-4,26.25-6.18,39.88-5.13a9.84,9.84,0,0,0,8.06-2.85c4.77-4.41,9.8-8.54,14.61-12.9,1.81-1.64,3.12-1.75,5.07-.07a71.22,71.22,0,0,1,21.93,32.76C108,40.31,107.26,42.13,104.59,43.9Z"/></g></g></svg>