<?xml version="1.0" encoding="utf-8"?>
<!-- Generator: Adobe Illustrator 24.1.0, SVG Export Plug-In . SVG Version: 6.00 Build 0)  -->
<svg version="1.1" id="Layer_1" xmlns="http://www.w3.org/2000/svg" xmlns:xlink="http://www.w3.org/1999/xlink" x="0px" y="0px"
	 viewBox="0 0 595.3 841.9" style="enable-background:new 0 0 595.3 841.9;" xml:space="preserve">
<style type="text/css">
	.st0{fill:#020203;}
	.st1{fill:#3D3C3C;}
	.st2{font-family:'RockSalt-Regular';}
	.st3{font-size:19px;}
</style>
<g id="Layer_2_1_">
	<g id="Layer_9">
		<path class="st0" d="M253.3,382.7c-11.1-4.9-22.3-9.7-33.4-14.7c-4.4-2.1-9.6-2-13.9,0.3c-9.2,4.7-18.4,9.2-27.6,14.1
			c-5.1,2.7-8.4,6.7-9,12.9c-0.5,6.1-1.7,12.2-3.5,18.1c-4.6,15-3.2,29.9,0.2,44.9c0.6,3.2,0.8,6.4,0.7,9.6c0,0.3,0.1,0.7,0,1
			c0.1,0.7,0.2,1.4,0.2,2.1c0,0.1,0,0.2,0,0.3c0,0.5,0,1,0.1,1.5c0,0.2,0,0.5,0.1,0.7c0.1,0.2,0.1,0.7,0.2,1c0.2,0.4,0.4,0.7,0.8,1
			c0.3,0.2,0.5,0.6,0.7,0.9c10.8,8,23.6,12.8,37,14l0.8-0.2l0.5-0.2c0.4-0.2,0.9-0.5,1.3-0.7l0.2-0.2c0.3-0.2,0.5-0.5,0.8-0.8
			c-0.4,0.3,0.3-1.2,0.1-0.1l0,0c0.2-0.9,0.4-1.8,0.4-2.8c-0.1-0.3-0.1-0.7-0.2-1c0-0.1-0.1-0.2-0.1-0.3c-0.1-0.2-0.2-0.5-0.2-0.7
			c-1.1-2.6-1.6-6.5-1.9-12.3c-0.3-5.5-0.5-11-0.8-16.5c-0.3-4.3,1.3-7.5,4.6-10.4c10.3-9,20.5-18.1,31.6-26.1
			c4.8-3.4,5.8-6.9,2.7-12.1c6,0.1,9.9-2.3,11.3-8c0.2-0.6,0.5-1.3,0.8-1.8C262.8,388,262.4,386.7,253.3,382.7z M257.3,391.5
			c-1,1.5-2.2,1.7-3.8,0.7c-8.9-5.6-18.8-9.3-28.2-13.8c-5-2.5-10.8-2.5-15.8-0.2c-5.5,2.4-11.2,4.2-16.8,6.4
			c-1.3,0.5-3.4,0.5-2.8,2.7c0.7,2.1,2.6,0.9,3.8,0.4c5.5-1.9,11.1-3.6,16.4-6.1c5-2.4,9.6-2.1,14.3,0c8.8,4,17.6,8,26.4,11.9
			c2,0.9,3.7,1.8,2.8,4.4c-0.8,2.4-1.8,5-5,4.7c-2.5-0.3-4.9-0.7-7.3-1.3c-10.9-2.2-21.8-5-33.1-3.7c-4.2,0.5-8.6,1.2-9,6.8
			c-0.3,4.3,3.6,8.7,8.5,9.8c6.4,1.5,12.1-1.1,17.7-3.7c2.7-1.2,5.3-2.8,8-4.1c2.4-1.3,5.3-1.2,7.6,0.3c3.9,2.6,4.1,5.7,0.4,8.6
			c-10.8,8.4-21.4,17.1-31.7,26c-4.2,3.6-6.3,7.8-6.2,13.4c0.1,9.3,0.8,18.7,2.1,27.9c0.5,3.5-0.3,4.8-4.1,4.2
			c-10.4-1.6-20.3-5.6-28.9-11.6c-1-0.7-2-1.3-2-2.7c0.3-11.9-3.4-23.4-4.2-35.1c-0.1-1,0-2,0-3c-0.7-11.4,4.6-21.8,5.3-32.9
			c0.6-10.3,5.8-15.9,14.9-19.5c6.6-2.6,12.9-6.2,19.1-9.6c4.7-2.6,9.2-3,14.2-0.6c10.6,5.1,21.3,10.2,32.4,14.3
			c1.2,0.5,2.4,1.1,3.6,1.8C257.3,388.7,258.5,389.7,257.3,391.5L257.3,391.5z M232,402.8c-5.6,3.8-10.8,6.7-16.7,8
			c-4,0.9-8,0.9-11.1-2.4c-2.9-3.1-1.9-6.8,2.1-7.4C214.8,399.7,223.1,400.9,232,402.8z"/>
	</g>
</g>
<g id="Layer_2_2_">
	<g id="Layer_7">
		<path class="st0" d="M477.8,437.6c-9.9-13-22.2-23.3-37.6-29.7c-7.5-3.1-14.9-6.7-22.3-9.9c-3.9-1.9-7.4-4.5-10.3-7.7
			c-0.5-0.5-1-1.1-1.3-1.8c-0.2-0.2-0.4-0.5-0.6-0.7c-0.2-0.1-0.5-0.2-0.7-0.4c-0.4-0.2-0.9-0.4-1.2-0.7c-0.8-0.2-1.6-0.4-2.4-0.6
			c-0.5,0.2-1,0.3-1.5,0.5c-0.1,0-0.2,0.1-0.4,0.1c-10.6,7.5-19,17.7-24.4,29.5c0.1,0.4,0.1,0.9,0.1,0.6c0,0.3,0.1,0.6,0.2,0.9
			c0,0,0.3,0.6,0.4,0.7c0.2,0.3,0.4,0.6,0.6,0.9c0.2,0.3,0.3,0.4,0.4,0.6l0,0c6.9,5,12.9,11,17.7,18c0.9,1.6,1.3,3.5,1,5.3
			c-0.6,5.5,1.8,9.6,5.6,13.3c6.5,6.3,13.3,12.2,19,19.2c2.7,3.3,7.4,3.5,11.4,1c3.8-2.3,4.4-5.6,2.9-9.5c-0.3-0.9-1.3-1.6-0.6-3
			c6.9,4.9,13.8,9.8,21.6,13.1c5.8,2.4,9.5,1.6,12.7-3.7c1.3-2.2,3-2.3,4.9-2.6c5.9-1,8.3-4,8-10c-0.1-1.3-0.5-2.5,0.1-3.9
			C484.6,449.9,482,443.1,477.8,437.6z M478.8,454.8c-1.2,2.6-2.8,1.6-4.4,0.7c-8.1-4.2-15.8-9.3-22.9-15.1
			c-1.5-1.3-3.1-2.6-4.6-3.8c-1.2-0.9-2.5-3.1-4.1-1.1c-1.3,1.6,0.7,2.6,1.8,3.5c8.4,7.4,17.6,13.7,27.5,18.9
			c0.6,0.3,1.2,0.6,1.8,0.9c1.8,1.2,4.7,1.6,3.8,4.9c-0.9,3.5-3.7,3.8-6.6,4.1c-2,0.4-3-1-4.2-2.2c-8.1-8-17.9-13.8-26.8-20.8
			c-0.9-0.7-2-1.7-3-0.5c-1.3,1.5,0,2.5,1.1,3.2c5.5,4.1,11,8,16.5,12.1c2.9,2.2,5.8,4.5,8.5,6.9c1.7,1.5,3.9,3,2,5.8
			c-1.8,2.6-4.4,3-7.1,2c-4.5-1.7-8.8-4-12.8-6.8c-5.3-3.7-10.5-7.7-15.7-11.5c-1-0.7-2-2.2-3.4-0.9c-1.4,1.3-0.3,2.4,0.4,3.6
			c1.6,2.9,3.1,5.9,4.6,8.8c1.3,2.5,0.9,4.5-1.6,6c-2.4,1.5-4.7,2-6.7-0.5c-5.8-7.4-13-13.4-19.6-19.9c-2.3-2.3-4.2-5-3.9-8.3
			c0.5-6.6-2.4-11.6-6.8-15.9c-3.6-3.5-7.1-7-10.9-10.3c-1.8-1.6-2.4-2.7-1.2-5c4.7-9.2,11.4-16.7,19.4-23.1c2-1.6,3.3-1.4,4.9,0.6
			c4,5.1,9.3,8.4,15.2,10.9c8.6,3.6,16.9,7.8,25.4,11.7c12.8,5.9,22,15.9,30.9,26.3c1,1.1,2.3,2.8,1.4,4c-1.3,1.9-3-0.1-4.3-0.7
			c-8-3.6-14.7-9-20.7-15.4c-1.1-1.2-2.3-4.5-4.4-2.3c-1.8,1.9,1.1,3.4,2.3,4.8c6.9,7.9,15.7,14,25.6,17.8c0.6,0.2,1.3,0.4,1.9,0.8
			C480,450.7,479.8,452.5,478.8,454.8L478.8,454.8z"/>
	</g>
</g>
<g id="Layer_2_3_">
	<g id="Layer_6">
		<path class="st0" d="M343.1,85.4C339.1,69.8,330,56,317.4,46c-0.9-0.1-1.8-0.1-2.8-0.2c-0.7-0.1-1.4-0.1-2.1,0.1l-0.4,0.1
			l-0.4,0.2c-0.1,0.1-0.3,0.2-0.4,0.2c-0.6,0.8-1.3,1.6-2.2,2.2l-0.4,0.4c-9.6,10.5-20.7,15.6-35.5,14.2c-9.4-0.9-18.7,2.8-27.6,5.9
			c-5.2,1.8-8.4,5.7-9.9,11.1c-2.8,9.9-3.4,20-3.7,30.2c0,1.1,0.1,3,0.7,3.3c6.7,2.9,5.4,12.5,12.6,14.9c0.9,0.3,0.9,1.2,1.2,2
			c0.4,1.1,0.7,2.5,1.5,3.1c5.7,4.2,11.1,9.2,17.4,12.2c13.5,6.6,26.6,1.7,38.7-4.4c8-4,13.5-12.1,12.8-20.7
			c-1.4-16.9,12-21,21.8-28.5c0.3-0.2,0.5-0.4,0.8-0.5c0.2-0.2,0.5-0.4,0.7-0.6c0.5-0.6,1.1-1.2,1.8-1.7c0.1-0.2,0.2-0.4,0.3-0.6
			c0.1-0.2,0.2-0.4,0.3-0.6l0.1-0.5c0.1-0.3,0.1-0.6,0.2-0.8C343,86.4,343,85.9,343.1,85.4z M336.6,89.6
			c-6.2,4.2-12.2,8.7-18.4,12.9c-2.1,1.3-3.4,3.7-3.4,6.2c-0.5,7.1,0,14.4-3.9,20.9c-2.8,4.7-6.2,8.4-11.6,10.4
			c-7,2.6-14,5.1-21.8,5.3c3.3-1.9,6.6-3.8,9.8-5.7c5-2.7,7.9-8.1,7.4-13.7c-0.1-1.6-1.8-4.6,2.4-4.2c0.9,0.1,1.4-1.2,0.9-2.4
			c-2.4-4.9-5.7-9-11-11.1c-1.7-0.6-3.7,0.1-2.3,2c2.5,3.3-0.8,3.2-1.6,4.8c-1.2-1.2-0.6-2.2-0.6-3.1c0-1.1-0.2-2.1-1.4-2.3
			c-1.2-0.2-1.7,0.8-1.9,1.8c-1.1,5.8-1.1,11.9-5.5,16.7c-0.4,0.5-0.3,1.2,0.2,1.6c0,0,0.1,0.1,0.1,0.1c0.6,0.6,1.6,0.6,2.2,0
			c0,0,0.1-0.1,0.1-0.1c0.8-1,1.4-2.2,2.2-3.3c1.3-1.8,2.5-4.6,4.9-0.8c0.4,0.6,1.3,0.8,1.9,0.4c0.1-0.1,0.2-0.2,0.3-0.3
			c1.1-1,0.4-2.1-0.1-3.1c-0.8-1.4-3-2.6-0.6-4.5c1.3-1,2.1-3.2,3.8-2.8c1.8,0.4,1.7,2.6,1.9,4.2c0.8,5.3,2.3,11.1-2.5,14.9
			c-6.2,5-12.7,10-21.6,8.5c-3.8-0.7-5.5-3.4-5.5-7.2c0-7.9,1.4-15.6,2.8-23.3c0.2-0.8,0.3-1.6,0.4-2.4c0-1.4,1-3.4-1.2-3.7
			c-2.2-0.2-1.8,2-2.1,3.4c-1,5.6-1.8,11.2-2.7,16.8c-0.2,1.2,0.1,2.5-0.4,3.4c-0.8,1.6,1.3,5.2-2.3,4.9c-3.2-0.3-5.8-2.3-5.3-6.5
			c1.1-8.3,2.2-16.5,4.6-24.5c0.5-1.9,1-3.8,1.5-5.8c0.3-1.1,0.7-2.5-0.9-2.9c-1.6-0.4-1.9,0.8-2.3,2c-2.3,7.3-4,14.8-5.1,22.4
			c-0.3,1.9,0.6,5.3-2,5.2c-2.3,0-4-2.8-4.5-5.4c-0.3-1.5-0.2-3,0-4.5c1.7-9,3.1-18,5.8-26.8c0.4-1.3,1.5-3.2-0.7-3.7
			c-2-0.5-2.1,1.6-2.6,3c-2.2,7.3-3.8,14.8-5,22.4c-0.2,1.3,0,3.4-2.1,3.3s-1.8-2-1.8-3.5c0.1-9.3,1.2-18.6,3.3-27.7
			c1.4-5.9,5.5-8.9,10.9-10.5c13-4,26.2-6.2,39.9-5.1c3,0.3,5.9-0.7,8.1-2.9c4.8-4.4,9.8-8.5,14.6-12.9c1.8-1.6,3.1-1.8,5.1-0.1
			c10.2,8.6,17.8,20,21.9,32.8C340,86,339.3,87.8,336.6,89.6z"/>
	</g>
</g>
<g id="Layer_2_4_">
	<g id="Layer_8">
		<path class="st0" d="M182.5,222.5c-0.4-0.6-0.7-1.2-1.1-1.8l-0.5-0.7c-0.2-0.2-0.8-0.8-1.1-1.2c-0.2-0.2-0.7-0.6-0.8-0.6
			c-0.6-0.4-2-0.6-0.4-0.3c-0.4-0.1-0.9-0.3-1.4-0.4l-0.4-0.1h-0.4c-0.4,0-0.8-0.1-1.1-0.2c-0.9,0.1-2,0.1-3.4,0.1
			c-6.5,0.1-12.5-0.8-17.5-5.5c-1.4-1.3-3.4-2-5.1-3c-14.6-8-22.5-6.6-33.2,6.5c-2.2,2.8-4,3.1-7.1,2.1c-12.6-4-25.2-7.6-37.7-11.4
			c-3.3-1-6.3-1-8.9,1.4c-3,2.7-3.5,5.9-1,9.3c1.7,2.1,3.8,3.7,6.3,4.8c10.7,5.2,21.4,10.4,33.4,16.3c-14.4,3.3-27.9,4.4-41.2,6
			c-6,0.7-8.7,3.9-8.4,9.5c0.2,5.1,3,7.4,9.1,7.5c8.3,0.1,16.7,0.1,25,0c2.5,0,4,0.5,4.3,3.4c0.3,4.3,3.1,8,7.2,9.4
			c1.5,0.4,2.6,1.6,3.1,3c2.1,7.5,8.2,8.9,14.8,9.5c2.8,0.3,5.7-0.1,8.3-1.4c6.8-3.6,13.9-4.6,21.6-4.3c8.2,0.4,13.6-5.2,17.9-11.1
			c3.2-4.5,7.2-3.3,11.1-3.2c0.2,0,0.5,0,0.7,0.1c0.2,0,0.4,0,0.6,0c0.5,0,1.2-0.1,1.8-0.1c0.8-0.3,1.5-0.6,2.2-1
			c0.2-0.4,0.4-0.8,0.7-1.2c3.1-8.3,4.6-17.1,4.6-25.9c0-4.9-0.5-9.8-1.5-14.7C182.7,222.9,182.6,222.7,182.5,222.5z M101.7,271.2
			c-3.2-0.1-6.1-1.9-7.7-4.7c-2.5-4.2-1.5-6.1,3.2-6.9c9.3-1.5,18.7-3,28.1-4.4c1.6-0.2,3.7-1,4.6,0.7c1.1,2-1.1,3.3-2.3,4.4
			C120.3,267.1,111.2,269.5,101.7,271.2z M114.3,282.4c-2.8-0.1-6.7-0.6-9.5-3.6c-1.8-2-3-4.2,1.5-5c8.3-1.7,16.3-4.5,22.8-10.4
			c2.4-2.2,4.3-0.7,6.2,0.6c1.9,1.3,1.5,3,0.7,4.8C132.1,277.9,125,282.1,114.3,282.4z M178.1,258.8c-0.7,2.7-2.2,3.9-5,3.5
			c-2-0.2-4,0.1-6-0.1c-2.7-0.2-4.3,0.9-5.7,3c-6.1,9.1-14.1,14.1-25.5,11.5c-0.1-2.2,1.8-3.7,2.6-5.6c0.7-1.3,1.3-2.7,1.8-4.1
			c0.5-2-0.4-4.3-2-4.7c-5.8-1.6-3-12.7-12.5-10.6c-10.1,2.2-20.4,3.3-30.6,4.7c-12.1,1.7-24.3,0.4-36.4,0.8c-3.1,0.1-4.1-2-4.1-4.5
			c0-2.8,1-5.1,4.5-5.5c10.4-1.2,20.8-2.5,31.2-4c4.8-0.7,9.5-1.7,14.2-2.6c1.1-0.2,2.6-0.1,2.8-1.6c0.3-1.7-1.2-2.2-2.3-2.8
			c-8.8-4.3-17.6-8.6-26.4-12.9c-4-2-8.1-4-11.9-6.3c-2.1-1.2-4.5-3-3-6c1.4-2.7,3.9-2.6,6.5-1.8c12.7,3.9,25.5,7.7,38.2,11.4
			c2.9,0.8,4.1,1.9,3.7,5.1c-0.8,6.5,3.1,11.8,5.1,17.5c1.5,4.3,9.3,2.2,12-3c1.4-2.7,1.6-5.7,2-8.7c0.2-1.8,0.2-3.6,2.2-5.8
			c1.1,2.8,0.6,5.1,0.6,7.3c-0.1,9.8,4.7,15.7,14.2,17.6c1.2,0.2,2,0.1,2.4-1c0.4-1.1-0.3-1.6-1-2c-0.6-0.3-1.2-0.6-1.8-0.8
			c-8.4-2.7-11.3-8.6-10.3-17c0.3-1.8,0.2-3.7-0.3-5.4c-0.6-1.7-2.6-2-4.2-2c-1.9-0.1-3.6,1.3-3.9,3.2c-0.6,2.9-1,5.9-1.5,8.9
			c-0.2,2.2-1.1,4.2-2.7,5.8c-2.5,2.2-4.6,2.9-5.4-1.5c-0.9-4.8-4.4-8.9-3.9-14.3c1.2-11.3,17.3-20.6,27.5-15.4
			c2.7,1.4,5.7,2.4,7.8,4.4c6.9,6.3,15.2,7.7,24,7.3c3.3-0.1,4.7,1.2,5.1,4.4C181.6,236.4,181,247.8,178.1,258.8L178.1,258.8z"/>
	</g>
</g>
<g id="Layer_2_5_">
	<g id="Layer_3">
		<path class="st0" d="M539.3,183.3c1.6-5.3,0.7-7.7-4.4-9.9c-2.1-0.9-1.9-2.2-1.8-3.8c0.2-3.3-0.7-6.3-3.3-8.6
			c-4.9-4.3-10.9-2.6-13.6,3.9c-3.1,7.5-6,15.1-9,22.7c-0.3,0.7-0.7,1.4-1.7,3.4c-1.6-10.7-3-20.1-4.4-29.4
			c-0.6-3.9-0.6-8.5-5.4-9.8c-4.7-1.3-8.8,0.7-11.5,4.9c-0.8,1.1-1.9,1.8-3.2,1.9c-6.5,1.8-9,5-8.6,12.1c0.9,15.3,1.3,30.6,0.9,46
			c0,1.7-0.1,3.3-0.2,5.6c-5.7-2-10-5.7-14.7-8.6c-4.5-2.8-9.1-4.6-14.6-3.3c-7,1.5-9.4,6.2-6.3,12.6c1.2,2.6,3.2,4.7,5.7,6.2
			c7.9,4.7,14.5,11.2,19.3,19c2.5,3.9,6.3,6.8,9.5,10.2c1.6,1.6,3.2,11,2.6,14.5c0.1,0.6,0.1,1.3,0.1,1.9c0.2,1.3,0.8,2.5,1.6,3.5
			c0.6,0.6,1.3,1,2.1,1.3c13.3,3.1,27.2,2.5,40.2-1.8c0.4-0.3,0.8-0.5,1.3-0.6c0.1,0,0.1-0.1,0.2-0.1c0.1-0.4,0.3-0.7,0.5-1
			c0.1-0.3,0.3-0.8,0.4-1.3c0-0.5,0-1,0.1-1.5c0-5.2,0-9.8,0-14.4c-0.1-1.4,0.5-2.7,1.5-3.5c8.8-7.7,10.3-18.3,11.3-29
			c0.5-4.8,1.1-9.7-1.3-14.6c-1-2.1,0.2-5.6,0.9-8.3C535.3,196.7,537.3,190,539.3,183.3z M530.3,216.3c1.8,4.3,0.4,8.9-0.1,13.3
			c-1.1,8.9-2.9,17.5-10.3,23.6c-1.7,1.4-2.6,3.6-2.3,5.8c0.2,2.3,0.1,4.7,0.2,7c0.2,9.6,0.2,9.8-9.3,11.2
			c-8.8,1.1-17.6,1.2-26.4,0.1c-3-0.3-4.6-1.6-4.1-4.8c1.6-9.4-1.5-16.8-9.4-22.3c-1.1-0.8-2-1.8-2.6-3
			c-5.3-8.9-12.7-15.7-21.2-21.4c-3.3-2.2-6.4-5.2-4.6-9.5c1.9-4.2,6.3-2.8,9.9-2.8c2.8,0.1,4.9,1.8,7.2,3.3c4.6,3,9,6.3,14.1,8.4
			c3.3,1.3,5.1,0.8,5.2-3.5c0.3-8.7,0.7-17.3-0.6-26v-24.4c0-2-0.2-4,0.9-5.8c1-2,3.1-3.2,5.3-3.2c2.7,0.1,2.3,2.6,2.7,4.2
			c2.3,10.6,3.2,21.4,4.6,32.1c0.3,2.2-0.6,3.4-2.1,4.6c-1,0.8-2,2.1-0.8,3.4c1.2,1.3,2.1,0.1,2.9-0.7c1.5-1.5,3.2-1.5,5.1-1.3
			c1.2,0.1,2.5,0.4,2.8-1.3c0.2-1.2-0.7-1.8-1.8-2c-3-0.5-2.8-3-3-5c-1.5-11.7-2.4-23.5-5.5-34.9c-1.1-4.1,2.1-5.7,5.2-6.4
			c3.2-0.7,4.7,1.1,5.2,4.4c1.7,12.2,3.6,24.4,5.5,36.5c0.2,1.4-0.2,3.5,1.7,3.8c2.2,0.3,2.3-1.9,2.9-3.4
			c3.9-9.9,7.9-19.8,11.7-29.7c1.2-3.2,3-5.4,6.7-3.8c3.7,1.6,4.8,4.5,3,7.8c-4.9,9.3-7.8,19.3-10.9,29.3c-0.7,2.3-1.3,4.6-4.6,4
			c-0.9-0.2-1.8,0.3-2.1,1.2c0,0.1,0,0.2,0,0.3c-0.1,1.3,0.9,1.8,1.9,1.8c2.2-0.1,4.3,1.1,5.3,3.1c0.6,0.9,1.4,1.6,2.5,0.9
			c0.8-0.3,1.1-1.2,0.8-1.9c-0.1-0.2-0.2-0.4-0.4-0.6c-2.6-2.6-1.1-5.2-0.2-7.9c2.4-7.1,4.8-14.2,7.1-21.3c1-2.9,2.8-4,5.7-3
			c3.1,1.1,2.6,3.6,1.9,5.8c-2.6,7.6-4.7,15.3-6.4,23.1C528.9,209.1,528.7,212.7,530.3,216.3L530.3,216.3z"/>
		<path class="st0" d="M485.5,228.8c10.2,0.3,18.4,8.4,18.9,18.6c0.1,1.3,0.2,2.5-1.3,2.7s-1.8-1.1-2-2.3c-0.8-4.2-2.1-8.1-5-11.2
			c-2.9-3.2-6.6-4.3-10.8-4.3c-1.5,0-4,1-3.9-1.5C481.5,228,484.1,229.1,485.5,228.8z"/>
	</g>
</g>
<path class="st1" d="M138.7,197.9c3.6-1.2,7.1-1.9,10.9-2.4c1-0.1,2-1.6,0.9-2.4c-1.4-1.1-2.8-2.3-4.2-3.5
	c26-27.8,53.2-54.5,78.4-83c0.9-1-0.5-2.4-1.5-1.4c-27.3,26.6-52.6,55.2-79.1,82.5c-0.3-0.3-0.6-0.5-0.9-0.8
	c-0.8-0.7-1.6-1.4-2.4-2.1c-0.8-0.7-2.3-0.4-2.4,0.7c-0.5,3.5-1,7.1-1.5,10.6C136.7,197.2,137.5,198.3,138.7,197.9z"/>
<path class="st1" d="M151.2,402.4c0.3-3.7,1.2-7.3,2.2-10.9c0.3-1-0.6-2.4-1.8-1.8c-1.6,0.9-3.2,1.7-4.9,2.4
	c-15-34.9-28.5-70.6-44.5-105.1c-0.6-1.2-2.4-0.5-1.9,0.8c13.4,35.7,29.4,70.3,43.7,105.6c-0.4,0.2-0.7,0.4-1.1,0.6
	c-1,0.4-1.9,0.9-2.9,1.3c-0.9,0.4-1.3,1.9-0.3,2.5c3,1.9,6.1,3.7,9.1,5.6C149.7,403.9,151.1,403.6,151.2,402.4z"/>
<path class="st1" d="M377.5,398.7c-4.3-5.2-7.8-10.3-11.1-15.7c-0.9-1.5-3.8-2.9-4.4-1.4c-0.8,2-1.8,3.9-2.8,5.8
	C297,349.2,235.8,309.1,173,271.9c-2.2-1.3-3.5,0.7-1.3,2.1c61.1,40.1,124.1,77.5,185.9,116.6c-0.2,0.4-0.4,0.9-0.6,1.3
	c-0.6,1.1-1.2,2.2-1.8,3.3c-0.6,1.1,0.8,3.2,2.8,3.5c6,0.8,12,1.7,18,2.5C377.6,401.5,378.9,400.3,377.5,398.7z"/>
<path class="st1" d="M328.7,134.8c0.7,8,0.6,15.5,0.2,23c-0.1,2,1.7,5.5,3.2,4.5c2.1-1.4,4.3-2.5,6.5-3.5
	c33.5,81.3,64.9,163.7,99.7,244.4c1.2,2.8,3.7,1.8,2.6-1c-31.2-82.3-66.1-163.4-98.7-245.2c0.5-0.3,1-0.5,1.4-0.8
	c1.3-0.6,2.6-1.3,3.9-1.8c1.3-0.6,1.4-3.7-0.3-5.4c-5.1-5.1-10.2-10.3-15.3-15.4C330.4,132.1,328.5,132.3,328.7,134.8z"/>
<path class="st1" d="M199.3,364.8c2.7-5.3,5.5-10,8.5-14.6c0.8-1.2,1.3-4.2,0.3-4.2c-1.4,0-2.8-0.2-4.2-0.4
	c15.9-64.7,33.1-129.2,48.2-194.1c0.5-2.3-0.9-2.6-1.5-0.4c-17.2,64.4-32.5,129.5-48.9,194.2c-0.3,0-0.6,0-0.9-0.1
	c-0.8-0.1-1.6-0.2-2.4-0.4c-0.8-0.2-2,1.8-1.9,3.5c0.3,5.3,0.6,10.6,0.9,15.8C197.5,365.8,198.5,366.5,199.3,364.8z"/>
<path class="st1" d="M356.7,85.1c1.5,3.4,2.5,7,3.3,10.6c0.2,1,1.7,1.8,2.4,0.7c1-1.5,2-3,3.1-4.5c29.9,23.5,58.9,48.3,89.5,70.9
	c1.1,0.8,2.3-0.7,1.3-1.6c-28.8-24.9-59.5-47.7-89-71.7c0.2-0.3,0.5-0.7,0.7-1c0.6-0.9,1.3-1.7,1.9-2.5c0.6-0.8,0.3-2.3-0.9-2.4
	c-3.6-0.2-7.1-0.4-10.7-0.5C357.3,83,356.2,83.9,356.7,85.1z"/>
<path class="st1" d="M185.3,210c6.3,2,11.8,4.3,17.3,6.8c1.5,0.7,4.8,0.6,4.5-0.6c-0.3-1.7-0.3-3.3-0.4-5
	c72.8,4.3,145.7,10.2,218.6,13.5c2.5,0.1,2.7-1.7,0.1-1.9c-72.8-6-145.9-9.3-218.8-14.3c0-0.4-0.1-0.7-0.1-1.1c0-1,0-1.9,0-2.9
	c0-0.9-2.3-1.9-4.1-1.4c-5.6,1.5-11.3,3.1-16.9,4.7C183.8,208.1,183.3,209.3,185.3,210z"/>
<path class="st1" d="M392.9,459.5c-4.7-1.6-8.9-3.5-13.1-5.7c-1.1-0.6-3.5-0.2-3.2,1.1c0.4,1.8,0.5,3.6,0.7,5.4
	c-52.9,2.5-105.9,3.3-158.7,6.9c-1.8,0.1-1.8,2.1,0.1,2.1c53-0.7,106-4.2,158.9-6c0.1,0.4,0.1,0.8,0.2,1.2c0.1,1.1,0.2,2.1,0.3,3.2
	c0.1,1,1.8,1.9,3.1,1.2c3.9-2.2,7.9-4.5,11.8-6.7C394.2,461.5,394.4,460,392.9,459.5z"/>
<path class="st1" d="M467.2,282.3c-4.9,4.4-9,9-12.9,13.8c-1.1,1.3-4.1,2.2-4.5,0.6c-0.5-2.2-1.2-4.3-2-6.4
	c-65.6,27.3-130.6,56.7-196.6,82.8c-2.3,0.9-3.3-1.3-1-2.4c64.8-29.4,131.1-55.7,196.5-84c-0.1-0.5-0.3-1-0.4-1.4
	c-0.4-1.2-0.9-2.5-1.4-3.7c-0.5-1.2,1.2-3.1,3.2-3.1c6,0.2,11.9,0.5,17.9,0.7C467.7,279.4,468.8,280.8,467.2,282.3z"/>
<path class="st1" d="M502.9,286.1c-2.7,2.9-5.6,5.4-8.7,7.7c-0.9,0.6-1.1,2.5,0.2,2.7c1.8,0.3,3.5,0.7,5.3,1.2
	c-11.3,39.3-24.2,78.1-34.5,117.6c-0.4,1.4,1.5,2,2,0.6c13-38.8,23.4-78.4,35.4-117.5c0.4,0.1,0.8,0.2,1.2,0.2c1,0.3,2,0.5,3,0.8
	c1,0.3,2.2-0.7,1.9-1.9c-1.1-3.6-2.2-7.1-3.3-10.7C505,285.8,503.8,285.2,502.9,286.1z"/>
<text transform="matrix(0.982 -0.1891 0.1891 0.982 235.3519 55.1736)" class="st2 st3">rock</text>
<text transform="matrix(0.982 -0.1891 0.1891 0.982 22.3215 207.6028)" class="st2 st3">scissors</text>
<text transform="matrix(0.943 0.3328 -0.3328 0.943 103.2582 478.6183)" class="st2 st3">lizard</text>
<text transform="matrix(0.9982 5.921927e-02 -5.921927e-02 0.9982 279.5822 485.2935)" class="st2 st3">eats</text>
<text transform="matrix(0.3538 0.9353 -0.9353 0.3538 82.0208 290.6908)" class="st2 st3">decapitates</text>
<text transform="matrix(0.3 -0.954 0.954 0.3 501.1746 411.2832)" class="st2 st3">disproves</text>
<text transform="matrix(0.8004 0.5994 -0.5994 0.8004 367.6113 73.8394)" class="st2 st3">vaporizes</text>
<text transform="matrix(0.3218 -0.9468 0.9468 0.3218 232.036 305.982)" class="st2 st3">crushes</text>
<text transform="matrix(0.7206 -0.6934 0.6934 0.7206 153.4347 163.0769)" class="st2 st3">crushes</text>
<text transform="matrix(0.982 -0.1891 0.1891 0.982 465.0821 499.7867)" class="st2 st3">paper</text>
<text transform="matrix(0.982 -0.1891 0.1891 0.982 508.6834 148.9282)" class="st2 st3">spock</text>
<text transform="matrix(0.9984 5.601344e-02 -5.601344e-02 0.9984 243.0686 207.6031)" class="st2 st3">smashes</text>
<text transform="matrix(0.929 -0.3702 0.3702 0.929 324.567 360.8459)" class="st2 st3">poisons</text>
<text transform="matrix(0.4597 0.8881 -0.8881 0.4597 343.0954 233.1685)" class="st2 st3">covers</text>
<text transform="matrix(0.8451 0.5347 -0.5347 0.8451 235.3521 330.5652)" class="st2 st3">cuts</text>
</svg>
