<?xml version="1.0" encoding="utf-8"?>
<!-- Generator: Adobe Illustrator 24.1.0, SVG Export Plug-In . SVG Version: 6.00 Build 0)  -->
<svg version="1.1" id="Layer_1" xmlns="http://www.w3.org/2000/svg" xmlns:xlink="http://www.w3.org/1999/xlink" x="0px" y="0px"
	 viewBox="0 0 62.5 101.1" style="enable-background:new 0 0 62.5 101.1;" xml:space="preserve">
<g id="Layer_2_1_">
	<g id="Layer_8">
		<path d="M14.2,99.7c-0.5-0.3-1-0.5-1.4-0.8l-0.5-0.4c-0.2-0.2-0.6-0.6-0.9-0.9c-0.1-0.2-0.4-0.5-0.5-0.6c-0.3-0.5-0.5-1.5-0.2-0.3
			c-0.1-0.3-0.2-0.7-0.3-1l-0.1-0.3v-0.3c0-0.3-0.1-0.6-0.1-0.9c0.1-0.6,0.1-1.5,0.1-2.6c0.1-5-0.6-9.5-4.2-13.3
			c-1-1.1-1.5-2.6-2.3-3.9c-6.1-11.1-5-17.1,4.9-25.2c2.1-1.7,2.3-3,1.6-5.4c-3-9.6-5.7-19.1-8.7-28.7c-0.8-2.5-0.8-4.8,1.1-6.7
			c2.1-2.3,4.5-2.7,7.1-0.8c1.6,1.3,2.8,2.9,3.7,4.8c4,8.2,7.9,16.3,12.4,25.4c2.5-11,3.4-21.2,4.6-31.3c0.6-4.6,2.9-6.6,7.2-6.4
			c3.9,0.2,5.6,2.3,5.7,6.9c0.1,6.3,0.1,12.7,0,19c0,1.9,0.4,3,2.6,3.2c3.3,0.2,6.1,2.4,7.2,5.4c0.3,1.1,1.2,2,2.3,2.3
			c5.7,1.6,6.8,6.3,7.2,11.2c0.3,2.2-0.1,4.4-1,6.3c-2.7,5.2-3.5,10.6-3.2,16.4c0.3,6.2-3.9,10.3-8.5,13.6C46.3,87,47.2,90,47.3,93
			c0,0.2,0,0.3,0.1,0.5c0,0.2,0,0.3,0,0.5c0,0.4-0.1,0.9-0.1,1.4c-0.2,0.6-0.5,1.1-0.8,1.7c-0.3,0.2-0.6,0.3-0.9,0.5
			c-6.3,2.3-13,3.5-19.7,3.5c-3.7,0-7.5-0.4-11.1-1.1C14.6,99.9,14.4,99.8,14.2,99.7z M51.3,38.3c-0.1-2.4-1.4-4.7-3.6-5.9
			c-3.2-1.9-4.7-1.2-5.2,2.4c-1.2,7.1-2.3,14.2-3.3,21.3c-0.2,1.2-0.8,2.8,0.5,3.5c1.5,0.8,2.5-0.8,3.4-1.8
			C48.1,52.5,50,45.5,51.3,38.3z M59.8,47.9c-0.1-2.1-0.4-5.1-2.7-7.2c-1.5-1.4-3.2-2.3-3.8,1.1c-1.3,6.3-3.4,12.4-7.9,17.3
			c-1.7,1.8-0.5,3.3,0.4,4.7c1,1.5,2.3,1.2,3.7,0.6C56.4,61.4,59.6,56,59.8,47.9z M41.8,96.4c2.1-0.5,2.9-1.6,2.7-3.8
			c-0.2-1.5,0.1-3-0.1-4.6c-0.2-2,0.7-3.2,2.3-4.3c6.9-4.6,10.7-10.7,8.7-19.4c-1.7-0.1-2.8,1.3-4.2,2c-1,0.5-2,1-3.1,1.4
			c-1.5,0.4-3.3-0.3-3.6-1.5c-1.2-4.4-9.7-2.3-8.1-9.5c1.7-7.6,2.5-15.5,3.6-23.3c1.3-9.2,0.3-18.5,0.6-27.7
			c0.1-2.4-1.5-3.1-3.4-3.1C35,2.6,33.3,3.3,33,6c-0.9,7.9-1.9,15.8-3,23.7c-0.5,3.6-1.3,7.2-2,10.8c-0.2,0.8-0.1,1.9-1.2,2.1
			c-1.3,0.2-1.7-0.9-2.1-1.8c-3.3-6.7-6.5-13.4-9.8-20.1c-1.5-3-3-6.1-4.8-9.1c-1-1.6-2.3-3.4-4.6-2.3c-2.1,1-1.9,2.9-1.3,4.9
			c2.9,9.7,5.9,19.4,8.7,29.1c0.6,2.2,1.4,3.1,3.9,2.8c4.9-0.6,8.9,2.4,13.3,3.9c3.2,1.1,1.7,7.1-2.3,9.1c-2.1,1.1-4.4,1.2-6.6,1.5
			c-1.3,0.2-2.8,0.2-4.4,1.7c2.2,0.9,3.9,0.4,5.6,0.4c7.4-0.1,12,3.6,13.4,10.8c0.2,0.9,0.1,1.5-0.8,1.8c-0.9,0.3-1.2-0.2-1.5-0.8
			c-0.2-0.4-0.4-0.9-0.6-1.4c-2-6.4-6.5-8.6-12.9-7.8c-1.4,0.2-2.8,0.1-4.1-0.3c-1.3-0.4-1.6-1.9-1.5-3.2c-0.1-1.5,1-2.7,2.4-3
			c2.2-0.4,4.5-0.8,6.7-1.1c1.7-0.1,3.2-0.9,4.4-2.1c1.7-1.9,2.2-3.5-1.1-4.1c-3.7-0.7-6.7-3.4-10.8-2.9C7.1,49.6,0.1,61.9,4,69.6
			c1,2,1.8,4.3,3.3,5.9c4.8,5.3,5.8,11.5,5.5,18.2c-0.1,2.5,0.9,3.5,3.4,3.9C24.8,99,33.5,98.6,41.8,96.4L41.8,96.4z"/>
	</g>
</g>
</svg>
