<svg xmlns="http://www.w3.org/2000/svg" viewBox="0 0 133.01 82.27"><g id="Layer_2" data-name="Layer 2"><g id="Layer_8" data-name="Layer 8"><path d="M131.12,18.77c-.35-.62-.71-1.25-1.09-1.85l-.49-.71c-.21-.2-.77-.82-1.12-1.23-.24-.19-.69-.56-.83-.65-.62-.37-2-.62-.39-.27-.45-.1-.92-.27-1.36-.41l-.4-.14-.38,0c-.39,0-.77-.1-1.15-.17-.85.08-2,.1-3.37.13C114,13.58,108,12.66,103,8c-1.41-1.32-3.4-2-5.15-3-14.56-8-22.52-6.61-33.19,6.48-2.24,2.75-4,3.05-7.07,2.08C45,9.6,32.41,6,19.85,2.14c-3.3-1-6.27-1-8.86,1.39-3,2.74-3.54,5.92-1,9.31a16.25,16.25,0,0,0,6.27,4.81C27,22.85,37.7,28.09,49.67,33.91c-14.43,3.3-27.86,4.43-41.21,6-6,.73-8.7,3.86-8.44,9.48.23,5.08,3,7.41,9.11,7.47,8.33.07,16.66.09,25,0,2.54,0,4,.5,4.27,3.41a10.88,10.88,0,0,0,7.16,9.44,4.56,4.56,0,0,1,3.05,3c2.14,7.46,8.25,8.9,14.78,9.46a15.2,15.2,0,0,0,8.31-1.36c6.82-3.56,13.9-4.61,21.56-4.27,8.16.37,13.61-5.18,17.92-11.12,3.23-4.47,7.25-3.3,11.14-3.2a2.8,2.8,0,0,1,.67.1c.21,0,.42,0,.63,0,.53,0,1.23-.1,1.84-.12a20.21,20.21,0,0,0,2.21-1,11.24,11.24,0,0,1,.69-1.17A75,75,0,0,0,133,34.09a72.32,72.32,0,0,0-1.48-14.66A5.59,5.59,0,0,1,131.12,18.77ZM50.38,67.48a9.42,9.42,0,0,1-7.74-4.67c-2.47-4.18-1.53-6.12,3.22-6.9q14-2.29,28.07-4.38c1.56-.23,3.71-1,4.6.66,1.1,2-1.09,3.27-2.33,4.43C69,63.37,59.84,65.77,50.38,67.48ZM63,78.71c-2.8-.14-6.72-.55-9.47-3.58-1.8-2-3-4.16,1.45-5C63.31,68.39,71.3,65.6,77.78,59.7c2.4-2.19,4.28-.7,6.21.57s1.52,3,.73,4.81C80.8,74.18,73.7,78.39,63,78.71Zm63.77-23.64c-.7,2.71-2.16,3.85-5,3.54-2-.22-4,.11-6-.08-2.66-.25-4.26.86-5.71,3C104,70.65,96,75.65,84.53,73c-.11-2.19,1.75-3.66,2.59-5.57a26,26,0,0,0,1.8-4.06c.49-2-.36-4.3-2-4.74C81.08,57,83.88,45.9,74.42,48c-10.06,2.19-20.37,3.26-30.59,4.68-12.1,1.69-24.28.39-36.41.76-3.12.1-4.11-2-4.06-4.53.05-2.84,1-5.11,4.48-5.51q15.63-1.8,31.21-4c4.77-.66,9.49-1.68,14.22-2.63,1.07-.21,2.55-.15,2.82-1.62.3-1.68-1.16-2.23-2.32-2.8C45,28,36.13,23.75,27.34,19.4c-4-2-8.07-4-11.92-6.27-2.1-1.25-4.48-3-3-6,1.36-2.73,3.86-2.56,6.51-1.75C31.65,9.24,44.38,13.1,57.17,16.77c2.86.82,4.14,1.9,3.73,5.11C60.07,28.33,64,33.65,66,39.34c1.49,4.26,9.32,2.22,12-3,1.4-2.71,1.59-5.74,2-8.71.25-1.77.2-3.65,2.19-5.82,1.14,2.84.57,5.13.55,7.34-.1,9.79,4.71,15.74,14.17,17.64,1.2.24,2,.14,2.37-1s-.3-1.56-1-2a9.86,9.86,0,0,0-1.84-.75c-8.37-2.67-11.3-8.58-10.32-17a12.44,12.44,0,0,0-.35-5.41c-.59-1.67-2.55-2.05-4.25-2a3.81,3.81,0,0,0-3.91,3.22c-.57,2.94-1,5.9-1.48,8.86a9,9,0,0,1-2.71,5.75c-2.49,2.18-4.64,2.88-5.45-1.46-.91-4.84-4.45-8.85-3.86-14.26C65.3,9.39,81.46.16,91.6,5.36c2.66,1.37,5.67,2.4,7.82,4.36,6.93,6.3,15.18,7.67,24,7.27,3.29-.14,4.66,1.18,5.15,4.43A83.38,83.38,0,0,1,126.73,55.07Z"/></g></g></svg>