<?xml version="1.0" encoding="utf-8"?>
<!-- Generator: Adobe Illustrator 24.1.0, SVG Export Plug-In . SVG Version: 6.00 Build 0)  -->
<svg version="1.1" id="Layer_1" xmlns="http://www.w3.org/2000/svg" xmlns:xlink="http://www.w3.org/1999/xlink" x="0px" y="0px"
	 viewBox="0 0 66.3 107.2" style="enable-background:new 0 0 66.3 107.2;" xml:space="preserve">
<g id="Layer_2_1_">
	<g id="Layer_8">
		<path d="M16.2,102.5c-0.5-0.3-0.9-0.5-1.4-0.8l-0.5-0.4c-0.2-0.2-0.6-0.6-0.9-0.8c-0.1-0.2-0.4-0.5-0.5-0.6
			c-0.3-0.5-0.5-1.5-0.2-0.3c-0.1-0.3-0.2-0.7-0.3-1l-0.1-0.3v-0.3c0-0.3-0.1-0.6-0.1-0.9c0.1-0.6,0.1-1.5,0.1-2.5
			c0.1-4.9-0.6-9.5-4.1-13.3c-1-1.1-1.5-2.6-2.3-3.9c-6-11-5-17,4.9-25.1c2.1-1.7,2.3-3,1.6-5.3c-3-9.5-5.7-19-8.6-28.5
			c-0.8-2.5-0.8-4.7,1.1-6.7c2.1-2.3,4.5-2.7,7-0.8c1.6,1.3,2.8,2.9,3.6,4.7c3.9,8.1,7.9,16.2,12.3,25.3C30.2,30,31,19.8,32.2,9.7
			c0.6-4.5,2.9-6.6,7.2-6.4c3.8,0.2,5.6,2.3,5.6,6.9c0.1,6.3,0.1,12.6,0,18.9c0,1.9,0.4,3,2.6,3.2c3.2,0.2,6,2.4,7.1,5.4
			c0.3,1.1,1.2,2,2.3,2.3c5.6,1.6,6.7,6.2,7.2,11.2c0.3,2.1-0.1,4.3-1,6.3c-2.7,5.2-3.5,10.5-3.2,16.3c0.3,6.2-3.9,10.3-8.4,13.5
			c-3.4,2.4-2.5,5.5-2.4,8.4c0,0.2,0,0.3,0.1,0.5c0,0.2,0,0.3,0,0.5c0,0.4-0.1,0.9-0.1,1.4c-0.2,0.6-0.5,1.1-0.8,1.7
			c-0.3,0.2-0.6,0.3-0.9,0.5c-6.3,2.3-12.9,3.5-19.6,3.5c-3.7,0-7.4-0.4-11.1-1.1C16.6,102.7,16.4,102.6,16.2,102.5z M53,41.4
			c-0.1-2.4-1.4-4.6-3.5-5.9c-3.2-1.9-4.6-1.2-5.2,2.4C43.1,45.1,42,52.1,41,59.2c-0.2,1.2-0.8,2.8,0.5,3.5c1.5,0.8,2.5-0.8,3.3-1.8
			C49.9,55.5,51.7,48.6,53,41.4z M61.5,51c-0.1-2.1-0.4-5.1-2.7-7.2c-1.5-1.4-3.1-2.3-3.8,1.1c-1.3,6.3-3.4,12.3-7.9,17.2
			c-1.7,1.8-0.5,3.2,0.4,4.7c1,1.5,2.3,1.1,3.6,0.6C58.1,64.4,61.3,59.1,61.5,51z M43.7,99.2c2-0.5,2.9-1.6,2.7-3.8
			c-0.2-1.5,0.1-3-0.1-4.5c-0.2-2,0.7-3.2,2.3-4.3c6.9-4.6,10.7-10.6,8.7-19.3c-1.7-0.1-2.8,1.3-4.2,2c-1,0.5-2,1-3.1,1.4
			c-1.5,0.4-3.3-0.3-3.6-1.5c-1.2-4.4-9.6-2.3-8-9.4c1.7-7.6,2.5-15.4,3.5-23.1c1.3-9.1,0.3-18.4,0.6-27.5c0.1-2.4-1.5-3.1-3.4-3.1
			c-2.1,0-3.9,0.8-4.2,3.4c-0.9,7.9-1.9,15.7-3,23.6c-0.5,3.6-1.3,7.2-2,10.7c-0.2,0.8-0.1,1.9-1.2,2.1c-1.3,0.2-1.7-0.9-2.1-1.8
			c-3.3-6.6-6.5-13.3-9.8-20c-1.5-3-3-6.1-4.7-9c-0.9-1.6-2.3-3.4-4.5-2.3c-2.1,1-1.9,2.9-1.3,4.9c2.9,9.6,5.8,19.2,8.6,28.9
			c0.6,2.2,1.4,3.1,3.9,2.8c4.9-0.6,8.9,2.3,13.2,3.9c3.2,1.1,1.7,7-2.3,9.1c-2,1.1-4.3,1.2-6.6,1.5c-1.3,0.2-2.8,0.2-4.4,1.7
			c2.1,0.9,3.9,0.4,5.5,0.4c7.4-0.1,11.9,3.6,13.3,10.7c0.2,0.9,0.1,1.5-0.8,1.8c-0.9,0.3-1.2-0.2-1.5-0.8c-0.2-0.4-0.4-0.9-0.6-1.4
			c-2-6.3-6.5-8.5-12.9-7.8c-1.4,0.2-2.8,0.1-4.1-0.3c-1.3-0.4-1.5-1.9-1.5-3.2c-0.1-1.5,1-2.7,2.4-3c2.2-0.4,4.5-0.8,6.7-1.1
			c1.6-0.1,3.2-0.9,4.3-2c1.6-1.9,2.2-3.5-1.1-4.1c-3.7-0.7-6.7-3.4-10.8-2.9C9.1,52.7,2.1,64.9,6.1,72.6c1,2,1.8,4.3,3.3,5.9
			c4.8,5.2,5.8,11.5,5.5,18.1c-0.1,2.5,0.9,3.5,3.3,3.9C26.7,101.8,35.4,101.3,43.7,99.2L43.7,99.2z"/>
	</g>
</g>
</svg>
