<svg xmlns="http://www.w3.org/2000/svg" viewBox="0 0 147.97 147.98"><g id="Layer_2" data-name="Layer 2"><g id="Layer_10" data-name="Layer 10"><path d="M74.23,0C114.89.09,148.06,33.23,148,73.68,147.88,115,114.74,148.2,73.74,148A73.94,73.94,0,0,1,0,73.2C.16,32.75,33.46-.09,74.23,0ZM64.64,73.5c-12-5.82-22.7-11.07-33.44-16.26a16.28,16.28,0,0,1-6.28-4.81c-2.5-3.39-2-6.57,1-9.31,2.59-2.37,5.56-2.4,8.87-1.39C47.37,45.59,60,49.19,72.54,53.1c3.1,1,4.83.67,7.07-2.08,10.67-13.09,18.63-14.49,33.19-6.48,1.75,1,3.74,1.68,5.16,3,5,4.7,11,5.62,17.54,5.48s6.77,0,3.86-6.16C126.55,19.85,105.6,4.38,75.27,3.7,46.63,3.05,24.86,16.23,11.6,41-1.5,65.53.09,90.72,15.89,113.84,33,138.92,57.77,148.2,87.24,143.41c23.28-3.78,39.5-18.06,50.35-38.66.47-.89,2.18-2.84-.32-2.91-3.89-.1-7.91-1.27-11.15,3.2-4.3,5.93-9.76,11.49-17.91,11.12-7.66-.34-14.75.7-21.56,4.27a15.32,15.32,0,0,1-8.31,1.36c-6.54-.56-12.64-2-14.79-9.46a4.52,4.52,0,0,0-3-3,10.89,10.89,0,0,1-7.16-9.45c-.31-2.9-1.73-3.44-4.26-3.41-8.33.1-16.66.09-25,0C18,96.43,15.22,94.1,15,89c-.26-5.62,2.46-8.76,8.44-9.48C36.78,77.93,50.2,76.8,64.64,73.5ZM97.15,61.37c-2,2.17-1.94,4-2.18,5.82-.41,3-.6,6-2,8.71-2.71,5.25-10.53,7.28-12,3-2-5.69-5.91-11-5.08-17.46.42-3.21-.86-4.29-3.73-5.11C59.35,52.69,46.62,48.82,33.89,45c-2.65-.81-5.14-1-6.5,1.75-1.48,3,.89,4.77,3,6C34.24,55,38.28,57,42.3,59c8.79,4.36,17.63,8.63,26.43,13,1.17.57,2.62,1.11,2.32,2.8-.26,1.47-1.75,1.41-2.82,1.62-4.72,1-9.45,2-14.22,2.63q-15.57,2.16-31.2,4c-3.51.4-4.43,2.67-4.48,5.51,0,2.55.94,4.63,4.05,4.53,12.14-.37,24.32.93,36.42-.76C69,90.8,79.32,89.73,89.38,87.54c9.46-2.06,6.67,9,12.54,10.64,1.6.44,2.46,2.78,2,4.74a27.54,27.54,0,0,1-1.81,4.06c-.83,1.91-2.7,3.38-2.58,5.57C111,115.24,119,110.24,125,101.16c1.45-2.18,3.06-3.29,5.71-3,2,.19,4-.14,6,.08,2.83.31,4.29-.83,5-3.54A83.2,83.2,0,0,0,143.54,61c-.49-3.25-1.85-4.58-5.15-4.43-8.82.4-17.08-1-24-7.28-2.15-1.95-5.17-3-7.83-4.35C96.43,39.74,80.26,49,79,60.4c-.59,5.41,3,9.42,3.86,14.26.82,4.34,3,3.64,5.46,1.46a9.07,9.07,0,0,0,2.71-5.75c.45-3,.91-5.92,1.48-8.86a3.83,3.83,0,0,1,3.9-3.23c1.7-.07,3.66.31,4.25,2a12.29,12.29,0,0,1,.36,5.41c-1,8.4,1.95,14.31,10.32,17a10.15,10.15,0,0,1,1.84.75c.74.42,1.42,1,1,2s-1.18,1.21-2.38,1c-9.46-1.9-14.27-7.85-14.17-17.64C97.73,66.5,98.3,64.21,97.15,61.37Zm-31.81,45.7c9.46-1.71,18.58-4.11,25.83-10.86,1.24-1.16,3.42-2.39,2.33-4.43-.9-1.66-3-.9-4.6-.66Q74.85,93.21,60.83,95.5c-4.76.78-5.69,2.72-3.23,6.9A9.45,9.45,0,0,0,65.34,107.07ZM77.92,118.3c10.74-.32,17.84-4.54,21.76-13.63.79-1.83,1.25-3.52-.73-4.82s-3.81-2.75-6.2-.57c-6.48,5.91-14.48,8.7-22.84,10.38-4.44.9-3.25,3.07-1.46,5C71.2,117.75,75.12,118.16,77.92,118.3Z"/></g></g></svg>