<?xml version="1.0" encoding="utf-8"?>
<!-- Generator: Adobe Illustrator 24.1.0, SVG Export Plug-In . SVG Version: 6.00 Build 0)  -->
<svg version="1.1" id="Layer_1" xmlns="http://www.w3.org/2000/svg" xmlns:xlink="http://www.w3.org/1999/xlink" x="0px" y="0px"
	 viewBox="0 0 24 24" style="enable-background:new 0 0 24 24;" xml:space="preserve">
<path d="M6.1,9.5c0.4,1.7,1.5,3.1,2.8,4L8.7,14l-1.3,0.3l-4,6.8c-0.4,0.7-0.2,1.5,0.5,1.9s1.5,0.2,1.9-0.5l4-6.8l-0.3-1.3L9.8,14
	c1.5,0.7,3.2,0.9,4.9,0.5c3.7-1,6-4.8,5-8.6c-1-3.7-4.8-6-8.6-5S5.2,5.8,6.1,9.5z M17.8,6.4c0.7,2.7-0.9,5.4-3.6,6.1
	c-2.7,0.7-5.4-0.9-6.1-3.6S9,3.6,11.6,2.9S17,3.8,17.8,6.4z"/>
</svg>
