<svg xmlns="http://www.w3.org/2000/svg" viewBox="0 0 103.99 130.11"><g id="Layer_2" data-name="Layer 2"><g id="Layer_3" data-name="Layer 3"><path d="M103.28,31.87c1.56-5.27.74-7.67-4.36-9.86-2.14-.92-1.93-2.16-1.85-3.77.16-3.32-.69-6.29-3.27-8.55-4.88-4.26-10.91-2.61-13.6,3.88-3.12,7.53-6,15.15-9,22.72-.29.73-.7,1.41-1.69,3.37-1.59-10.66-3-20.06-4.39-29.45-.59-3.94-.62-8.52-5.37-9.81s-8.82.69-11.55,4.92a4.84,4.84,0,0,1-3.25,1.95c-6.55,1.79-9,5-8.61,12.05.86,15.32,1.31,30.63.87,46,0,1.66-.14,3.31-.24,5.59-5.71-2-10-5.72-14.71-8.65-4.54-2.81-9.14-4.55-14.63-3.31C.66,60.48-1.77,65.15,1.32,71.53A14.46,14.46,0,0,0,7,77.71a57.78,57.78,0,0,1,19.34,19c2.47,3.86,6.29,6.85,9.54,10.19,1.55,1.59,3.2,11,2.6,14.53a12.6,12.6,0,0,1,.13,1.91,6.77,6.77,0,0,0,1.64,3.49,7.47,7.47,0,0,0,2.07,1.32,74.26,74.26,0,0,0,40.15-1.83,7.29,7.29,0,0,1,1.28-.64.82.82,0,0,0,.2-.12,4.39,4.39,0,0,1,.51-1c.12-.29.27-.79.44-1.35a6.08,6.08,0,0,1,.13-1.49c0-5.21,0-9.81,0-14.4a4.34,4.34,0,0,1,1.51-3.54c8.8-7.68,10.32-18.31,11.34-29,.46-4.82,1.11-9.7-1.29-14.6-1-2.12.2-5.56.91-8.27C99.26,45.26,101.29,38.57,103.28,31.87Zm-9,32.94c1.84,4.34.39,8.92-.14,13.32C93,87,91.2,95.6,83.85,101.78a6.53,6.53,0,0,0-2.34,5.77c.16,2.32.12,4.66.17,7,.18,9.56.21,9.75-9.34,11.15a104.21,104.21,0,0,1-26.41.08c-3-.32-4.63-1.6-4.09-4.78,1.58-9.42-1.55-16.81-9.4-22.27a10,10,0,0,1-2.64-3C24.46,86.87,17.12,80.06,8.55,74.37,5.28,72.2,2.12,69.12,4,64.92s6.3-2.84,9.85-2.77c2.78.06,4.94,1.83,7.18,3.26,4.62,3,9,6.3,14.14,8.39,3.32,1.35,5.08.83,5.24-3.46.31-8.66.66-17.31-.61-26V19.9c0-2-.25-4,.91-5.81A6.08,6.08,0,0,1,46,10.88c2.65.06,2.31,2.59,2.65,4.16,2.34,10.58,3.22,21.38,4.63,32.1.28,2.18-.64,3.37-2.12,4.62-1,.84-2,2.12-.79,3.44s2.15.1,2.91-.7C54.74,53,56.52,53,58.37,53.19c1.16.1,2.49.37,2.76-1.26.2-1.22-.66-1.79-1.75-2-3-.5-2.78-3-3-5C54.89,33.21,54,21.42,50.87,10c-1.11-4.11,2.07-5.68,5.24-6.39s4.72,1.05,5.18,4.36c1.7,12.2,3.61,24.37,5.5,36.53.21,1.38-.18,3.47,1.73,3.75,2.21.32,2.34-1.88,2.93-3.37,3.91-9.9,7.86-19.78,11.72-29.69,1.23-3.19,3-5.36,6.7-3.81s4.75,4.5,3,7.75C88,28.41,85.09,38.45,82,48.44c-.7,2.26-1.34,4.55-4.6,4A1.71,1.71,0,0,0,75.28,54c-.09,1.26.86,1.8,1.92,1.8a5.89,5.89,0,0,1,5.34,3.08c.56.91,1.35,1.57,2.47.93a1.48,1.48,0,0,0,.43-2.5c-2.64-2.6-1.1-5.23-.22-7.87,2.36-7.09,4.8-14.16,7.12-21.26,1-2.95,2.76-4,5.68-3,3.15,1.08,2.6,3.65,1.91,5.82a196.49,196.49,0,0,0-6.37,23.07C92.87,57.67,92.71,61.2,94.23,64.81Z"/><path d="M49.54,77.31A19.55,19.55,0,0,1,68.47,95.92c.08,1.26.21,2.54-1.29,2.73s-1.8-1.14-2-2.33c-.79-4.15-2.14-8.07-5-11.24s-6.59-4.3-10.77-4.35c-1.49,0-4,1-3.93-1.54C45.47,76.52,48.13,77.6,49.54,77.31Z"/></g></g></svg>