<?xml version="1.0" encoding="utf-8"?>
<!-- Generator: Adobe Illustrator 24.1.0, SVG Export Plug-In . SVG Version: 6.00 Build 0)  -->
<svg version="1.1" id="Layer_1" xmlns="http://www.w3.org/2000/svg" xmlns:xlink="http://www.w3.org/1999/xlink" x="0px" y="0px"
	 viewBox="0 0 104 130.1" style="enable-background:new 0 0 104 130.1;" xml:space="preserve">
<g id="Layer_2_1_">
	<g id="Layer_3">
		<path d="M103.3,31.9c1.6-5.3,0.7-7.7-4.4-9.9c-2.1-0.9-1.9-2.2-1.8-3.8c0.2-3.3-0.7-6.3-3.3-8.5c-4.9-4.3-10.9-2.6-13.6,3.9
			c-3.1,7.5-6,15.1-9,22.7c-0.3,0.7-0.7,1.4-1.7,3.4c-1.6-10.7-3-20.1-4.4-29.5c-0.6-3.9-0.6-8.5-5.4-9.8s-8.8,0.7-11.5,4.9
			c-0.8,1.1-1.9,1.8-3.2,1.9c-6.5,1.8-9,5-8.6,12.1c0.9,15.3,1.3,30.6,0.9,46c0,1.7-0.1,3.3-0.2,5.6c-5.7-2-10-5.7-14.7-8.7
			c-4.5-2.8-9.1-4.5-14.6-3.3c-7,1.5-9.4,6.2-6.3,12.6c1.2,2.6,3.2,4.7,5.7,6.2c7.9,4.7,14.5,11.2,19.3,19c2.5,3.9,6.3,6.8,9.5,10.2
			c1.5,1.6,3.2,11,2.6,14.5c0.1,0.6,0.1,1.3,0.1,1.9c0.2,1.3,0.8,2.5,1.6,3.5c0.6,0.6,1.3,1,2.1,1.3c13.3,3.1,27.2,2.5,40.2-1.8
			c0.4-0.3,0.8-0.5,1.3-0.6c0.1,0,0.1-0.1,0.2-0.1c0.1-0.4,0.3-0.7,0.5-1c0.1-0.3,0.3-0.8,0.4-1.3c0-0.5,0-1,0.1-1.5
			c0-5.2,0-9.8,0-14.4c-0.1-1.4,0.5-2.7,1.5-3.5c8.8-7.7,10.3-18.3,11.3-29c0.5-4.8,1.1-9.7-1.3-14.6c-1-2.1,0.2-5.6,0.9-8.3
			C99.3,45.3,101.3,38.6,103.3,31.9z M94.3,64.8c1.8,4.3,0.4,8.9-0.1,13.3C93,87,91.2,95.6,83.8,101.8c-1.7,1.4-2.6,3.6-2.3,5.8
			c0.2,2.3,0.1,4.7,0.2,7c0.2,9.6,0.2,9.8-9.3,11.2c-8.8,1.1-17.6,1.2-26.4,0.1c-3-0.3-4.6-1.6-4.1-4.8c1.6-9.4-1.5-16.8-9.4-22.3
			c-1.1-0.8-2-1.8-2.6-3c-5.3-8.9-12.7-15.7-21.2-21.4c-3.3-2.2-6.4-5.2-4.5-9.5s6.3-2.8,9.9-2.8c2.8,0.1,4.9,1.8,7.2,3.3
			c4.6,3,9,6.3,14.1,8.4c3.3,1.3,5.1,0.8,5.2-3.5c0.3-8.7,0.7-17.3-0.6-26V19.9c0-2-0.2-4,0.9-5.8c1-2,3.1-3.2,5.3-3.2
			c2.7,0.1,2.3,2.6,2.7,4.2c2.3,10.6,3.2,21.4,4.6,32.1c0.3,2.2-0.6,3.4-2.1,4.6c-1,0.8-2,2.1-0.8,3.4s2.2,0.1,2.9-0.7
			c1.5-1.5,3.2-1.5,5.1-1.3c1.2,0.1,2.5,0.4,2.8-1.3c0.2-1.2-0.7-1.8-1.8-2c-3-0.5-2.8-3-3-5C54.9,33.2,54,21.4,50.9,10
			c-1.1-4.1,2.1-5.7,5.2-6.4s4.7,1,5.2,4.4c1.7,12.2,3.6,24.4,5.5,36.5c0.2,1.4-0.2,3.5,1.7,3.8c2.2,0.3,2.3-1.9,2.9-3.4
			c3.9-9.9,7.9-19.8,11.7-29.7c1.2-3.2,3-5.4,6.7-3.8s4.8,4.5,3,7.7C88,28.4,85.1,38.4,82,48.4c-0.7,2.3-1.3,4.5-4.6,4
			c-0.9-0.2-1.8,0.3-2.1,1.2c0,0.1,0,0.2,0,0.3c-0.1,1.3,0.9,1.8,1.9,1.8c2.2-0.1,4.3,1.1,5.3,3.1c0.6,0.9,1.3,1.6,2.5,0.9
			c0.8-0.3,1.1-1.2,0.8-1.9c-0.1-0.2-0.2-0.4-0.4-0.6c-2.6-2.6-1.1-5.2-0.2-7.9c2.4-7.1,4.8-14.2,7.1-21.3c1-3,2.8-4,5.7-3
			c3.2,1.1,2.6,3.6,1.9,5.8c-2.6,7.6-4.7,15.3-6.4,23.1C92.9,57.7,92.7,61.2,94.3,64.8L94.3,64.8z"/>
		<path d="M49.5,77.3c10.2,0.3,18.4,8.4,18.9,18.6c0.1,1.3,0.2,2.5-1.3,2.7s-1.8-1.1-2-2.3c-0.8-4.2-2.1-8.1-5-11.2
			s-6.6-4.3-10.8-4.3c-1.5,0-4,1-3.9-1.5C45.5,76.5,48.1,77.6,49.5,77.3z"/>
	</g>
</g>
</svg>
