<svg xmlns="http://www.w3.org/2000/svg" viewBox="0 0 147.97 147.98"><g id="Layer_2" data-name="Layer 2"><g id="Layer_2-2" data-name="Layer 2"><path d="M74,0c40.7,0,73.92,33,74,73.46A74,74,0,0,1,74,148C32.83,148,0,114.82,0,73.42,0,33,33.28,0,74,0Zm25.9,139.81c1.69-.64,2.5-.85,3.22-1.22,24.43-12.63,39.15-32,41.07-60,1.9-27.65-9.4-49.14-32.24-64C89.86.31,66-.58,42.46,10.92,5.16,29.16-7.89,75.13,13.68,110.67A69.48,69.48,0,0,0,49,140.28c1.27.49,2.74,1.79,4,.11,1.4-1.93-.48-13.79-2.24-15.6-3.25-3.33-7.07-6.33-9.53-10.18a57.72,57.72,0,0,0-19.35-19,14.58,14.58,0,0,1-5.68-6.18C13.1,83,15.54,78.34,22.46,76.78c5.49-1.24,10.09.5,14.63,3.32,4.71,2.92,9,6.64,14.71,8.65.1-2.29.2-3.94.25-5.59.43-15.34,0-30.65-.88-46-.4-7.07,2.07-10.26,8.61-12A4.84,4.84,0,0,0,63,23.19C65.76,19,69.76,17,74.58,18.26s4.78,5.88,5.37,9.82c1.41,9.39,2.81,18.79,4.4,29.45,1-2,1.4-2.64,1.69-3.38,3-7.57,5.91-15.19,9-22.71,2.7-6.49,8.72-8.15,13.61-3.88,2.58,2.25,3.42,5.23,3.26,8.55-.08,1.61-.29,2.84,1.85,3.76,5.11,2.2,5.92,4.6,4.36,9.87-2,6.7-4,13.38-5.78,20.14-.71,2.71-2,6.15-.92,8.26,2.4,4.91,1.76,9.79,1.29,14.61-1,10.66-2.54,21.29-11.34,29a4.35,4.35,0,0,0-1.51,3.53C99.93,129.89,99.91,134.53,99.91,139.81ZM54.65,62.23c1.27,8.66.93,17.31.61,26C55.1,92.5,53.35,93,50,91.67c-5.12-2.09-9.52-5.43-14.14-8.39-2.23-1.43-4.39-3.2-7.17-3.26-3.56-.07-8-1.35-9.86,2.77s1.3,7.28,4.57,9.45c8.57,5.68,15.91,12.5,21.25,21.37a9.81,9.81,0,0,0,2.65,3c7.84,5.47,11,12.86,9.39,22.28-.53,3.17,1.11,4.46,4.09,4.78a104.67,104.67,0,0,0,26.41-.08c9.55-1.41,9.53-1.6,9.34-11.15,0-2.33,0-4.67-.17-7a6.52,6.52,0,0,1,2.34-5.77c7.36-6.18,9.17-14.82,10.24-23.65.53-4.4,2-9,.15-13.32-1.53-3.61-1.36-7.14-.68-10.76a196.33,196.33,0,0,1,6.37-23.06c.7-2.18,1.24-4.74-1.91-5.83-2.91-1-4.72,0-5.68,3-2.32,7.11-4.75,14.18-7.12,21.27-.88,2.63-2.42,5.26.22,7.86a1.48,1.48,0,0,1-.43,2.5c-1.12.65-1.91,0-2.47-.93a5.9,5.9,0,0,0-5.34-3.08c-1,0-2-.54-1.92-1.79a1.71,1.71,0,0,1,2.13-1.58c3.27.59,3.9-1.69,4.6-4,3.08-10,6-20,10.89-29.36,1.72-3.25.57-6.25-3-7.74s-5.46.62-6.7,3.8c-3.86,9.92-7.81,19.8-11.72,29.7-.59,1.49-.72,3.68-2.93,3.36-1.91-.27-1.51-2.36-1.73-3.74C79.77,50.15,77.86,38,76.17,25.79c-.46-3.31-2-5.09-5.19-4.37s-6.35,2.29-5.24,6.4c3.09,11.47,4,23.26,5.48,35,.26,2,0,4.54,3,5,1.09.18,2,.75,1.75,2-.27,1.63-1.6,1.35-2.75,1.25-1.86-.16-3.63-.2-5.09,1.32-.77.79-1.77,1.94-2.91.7s-.22-2.6.78-3.44c1.49-1.26,2.41-2.45,2.12-4.62-1.41-10.73-2.29-21.52-4.63-32.11-.34-1.56,0-4.1-2.65-4.15A6.08,6.08,0,0,0,55.56,32c-1.15,1.81-.91,3.82-.91,5.81Z"/><path d="M64.41,95.18a19.55,19.55,0,0,1,18.93,18.6c.08,1.27.21,2.55-1.29,2.73s-1.8-1.14-2-2.33c-.79-4.14-2.13-8.06-5-11.24s-6.6-4.3-10.78-4.34c-1.49,0-4,1-3.93-1.55C60.34,94.38,63,95.46,64.41,95.18Z"/></g></g></svg>