<svg fill="#000000" xmlns="http://www.w3.org/2000/svg"  viewBox="0 0 24 24" width="144px" height="144px"><path d="M 12 2 C 8.199219 2 5.59375 4.507813 5.09375 8.40625 L 4.5 8.09375 L 3 7.40625 L 3 12 C 3 14 3.988281 15.3125 5.1875 15.8125 C 6.1875 19.8125 9.300781 21.898438 12 22 C 14.699219 21.898438 17.8125 19.8125 18.8125 15.8125 C 20.011719 15.3125 21 14 21 12 L 21 7.40625 L 19.59375 8.09375 L 19 8.40625 C 18.398438 4.507813 15.800781 2 12 2 Z M 8.09375 6 L 16 6 C 16.699219 7.101563 17.09375 8.601563 17.09375 10 L 17.09375 11 L 18.09375 11 C 18.292969 11 18.394531 10.992188 19.09375 10.59375 C 18.992188 11.09375 19 11.601563 19 12 C 19 13.398438 18.414063 13.898438 17.8125 14 L 17.09375 14.09375 L 17 14.8125 C 16.300781 18.113281 14 19.898438 12 20 C 10 19.898438 7.601563 18.113281 7 14.8125 L 6.90625 14.09375 L 6.1875 14 C 5.585938 13.898438 5 13.398438 5 12 L 5 10.59375 C 5.699219 10.992188 5.800781 11 6 11 L 7 11 L 7 10 C 7 8.601563 7.292969 7.101563 8.09375 6 Z M 8 8 C 8 8 8.5 10 11 10 L 11 9 C 9.101563 9 8 8 8 8 Z M 16 8 C 16 8 14.898438 9 13 9 L 13 10 C 15.5 10 16 8 16 8 Z M 9.5 11 C 8.671875 11 8 11.671875 8 12.5 C 8 13.328125 8.671875 14 9.5 14 C 10.328125 14 11 13.328125 11 12.5 C 11 11.671875 10.328125 11 9.5 11 Z M 14.5 11 C 13.671875 11 13 11.671875 13 12.5 C 13 13.328125 13.671875 14 14.5 14 C 15.328125 14 16 13.328125 16 12.5 C 16 11.671875 15.328125 11 14.5 11 Z"/></svg>